<svg width="67" height="84" viewBox="0 0 67 84" fill="none" xmlns="http://www.w3.org/2000/svg">
<path d="M22.5779 20.5248C27.4819 13.2985 30.3843 6.62492 31.8988 1.9068C32.4793 0.0985096 34.9311 -0.64221 36.3863 0.654224C58.3178 20.1895 65.4859 35.1039 66.9162 52.3405C67.9632 69.0125 59.2873 83.8477 36.0014 83.8477C14.1394 83.8477 -1.99411 69.4362 0.199748 46.5949C1.51085 32.944 7.12964 22.5446 11.6218 16.3539C13.0199 14.4273 15.9326 14.3994 17.5438 16.1714L21.5619 20.5909C21.8389 20.8954 22.3485 20.8627 22.5779 20.5248Z" fill="url(#paint0_radial_55_3343)"/>
<path d="M22.5779 20.5248C27.4819 13.2985 30.3843 6.62492 31.8988 1.9068C32.4793 0.0985096 34.9311 -0.64221 36.3863 0.654224C58.3178 20.1895 65.4859 35.1039 66.9162 52.3405C67.9632 69.0125 59.2873 83.8477 36.0014 83.8477C14.1394 83.8477 -1.99411 69.4362 0.199748 46.5949C1.51085 32.944 7.12964 22.5446 11.6218 16.3539C13.0199 14.4273 15.9326 14.3994 17.5438 16.1714L21.5619 20.5909C21.8389 20.8954 22.3485 20.8627 22.5779 20.5248Z" fill="url(#paint1_radial_55_3343)"/>
<path d="M22.5779 20.5248C27.4819 13.2985 30.3843 6.62492 31.8988 1.9068C32.4793 0.0985096 34.9311 -0.64221 36.3863 0.654224C58.3178 20.1895 65.4859 35.1039 66.9162 52.3405C67.9632 69.0125 59.2873 83.8477 36.0014 83.8477C14.1394 83.8477 -1.99411 69.4362 0.199748 46.5949C1.51085 32.944 7.12964 22.5446 11.6218 16.3539C13.0199 14.4273 15.9326 14.3994 17.5438 16.1714L21.5619 20.5909C21.8389 20.8954 22.3485 20.8627 22.5779 20.5248Z" fill="url(#paint2_linear_55_3343)"/>
<path d="M22.5779 20.5248C27.4819 13.2985 30.3843 6.62492 31.8988 1.9068C32.4793 0.0985096 34.9311 -0.64221 36.3863 0.654224C58.3178 20.1895 65.4859 35.1039 66.9162 52.3405C67.9632 69.0125 59.2873 83.8477 36.0014 83.8477C14.1394 83.8477 -1.99411 69.4362 0.199748 46.5949C1.51085 32.944 7.12964 22.5446 11.6218 16.3539C13.0199 14.4273 15.9326 14.3994 17.5438 16.1714L21.5619 20.5909C21.8389 20.8954 22.3485 20.8627 22.5779 20.5248Z" fill="url(#paint3_radial_55_3343)"/>
<path d="M22.5779 20.5248C27.4819 13.2985 30.3843 6.62492 31.8988 1.9068C32.4793 0.0985096 34.9311 -0.64221 36.3863 0.654224C58.3178 20.1895 65.4859 35.1039 66.9162 52.3405C67.9632 69.0125 59.2873 83.8477 36.0014 83.8477C14.1394 83.8477 -1.99411 69.4362 0.199748 46.5949C1.51085 32.944 7.12964 22.5446 11.6218 16.3539C13.0199 14.4273 15.9326 14.3994 17.5438 16.1714L21.5619 20.5909C21.8389 20.8954 22.3485 20.8627 22.5779 20.5248Z" fill="url(#paint4_radial_55_3343)"/>
<path d="M22.5779 20.5248C27.4819 13.2985 30.3843 6.62492 31.8988 1.9068C32.4793 0.0985096 34.9311 -0.64221 36.3863 0.654224C58.3178 20.1895 65.4859 35.1039 66.9162 52.3405C67.9632 69.0125 59.2873 83.8477 36.0014 83.8477C14.1394 83.8477 -1.99411 69.4362 0.199748 46.5949C1.51085 32.944 7.12964 22.5446 11.6218 16.3539C13.0199 14.4273 15.9326 14.3994 17.5438 16.1714L21.5619 20.5909C21.8389 20.8954 22.3485 20.8627 22.5779 20.5248Z" fill="url(#paint5_radial_55_3343)"/>
<path d="M22.5779 20.5248C27.4819 13.2985 30.3843 6.62492 31.8988 1.9068C32.4793 0.0985096 34.9311 -0.64221 36.3863 0.654224C58.3178 20.1895 65.4859 35.1039 66.9162 52.3405C67.9632 69.0125 59.2873 83.8477 36.0014 83.8477C14.1394 83.8477 -1.99411 69.4362 0.199748 46.5949C1.51085 32.944 7.12964 22.5446 11.6218 16.3539C13.0199 14.4273 15.9326 14.3994 17.5438 16.1714L21.5619 20.5909C21.8389 20.8954 22.3485 20.8627 22.5779 20.5248Z" fill="url(#paint6_radial_55_3343)"/>
<path d="M22.5779 20.5248C27.4819 13.2985 30.3843 6.62492 31.8988 1.9068C32.4793 0.0985096 34.9311 -0.64221 36.3863 0.654224C58.3178 20.1895 65.4859 35.1039 66.9162 52.3405C67.9632 69.0125 59.2873 83.8477 36.0014 83.8477C14.1394 83.8477 -1.99411 69.4362 0.199748 46.5949C1.51085 32.944 7.12964 22.5446 11.6218 16.3539C13.0199 14.4273 15.9326 14.3994 17.5438 16.1714L21.5619 20.5909C21.8389 20.8954 22.3485 20.8627 22.5779 20.5248Z" fill="url(#paint7_radial_55_3343)"/>
<path d="M14.9918 53.5041C19.1477 44.1625 27.6755 33.8252 33.4344 28.2175C35.0616 26.6329 37.6917 26.6046 39.4105 28.1005C50.4559 37.7125 53.7808 46.4022 56.6025 56.5182C59.5378 67.0426 56.6025 84.0001 34.5143 84.0001C15.4925 84.0001 8.90291 67.1897 14.9918 53.5041Z" fill="url(#paint8_radial_55_3343)"/>
<path d="M14.9918 53.5041C19.1477 44.1625 27.6755 33.8252 33.4344 28.2175C35.0616 26.6329 37.6917 26.6046 39.4105 28.1005C50.4559 37.7125 53.7808 46.4022 56.6025 56.5182C59.5378 67.0426 56.6025 84.0001 34.5143 84.0001C15.4925 84.0001 8.90291 67.1897 14.9918 53.5041Z" fill="url(#paint9_radial_55_3343)"/>
<path d="M14.9918 53.5041C19.1477 44.1625 27.6755 33.8252 33.4344 28.2175C35.0616 26.6329 37.6917 26.6046 39.4105 28.1005C50.4559 37.7125 53.7808 46.4022 56.6025 56.5182C59.5378 67.0426 56.6025 84.0001 34.5143 84.0001C15.4925 84.0001 8.90291 67.1897 14.9918 53.5041Z" fill="url(#paint10_radial_55_3343)"/>
<path d="M14.9918 53.5041C19.1477 44.1625 27.6755 33.8252 33.4344 28.2175C35.0616 26.6329 37.6917 26.6046 39.4105 28.1005C50.4559 37.7125 53.7808 46.4022 56.6025 56.5182C59.5378 67.0426 56.6025 84.0001 34.5143 84.0001C15.4925 84.0001 8.90291 67.1897 14.9918 53.5041Z" fill="url(#paint11_linear_55_3343)"/>
<path d="M14.9918 53.5041C19.1477 44.1625 27.6755 33.8252 33.4344 28.2175C35.0616 26.6329 37.6917 26.6046 39.4105 28.1005C50.4559 37.7125 53.7808 46.4022 56.6025 56.5182C59.5378 67.0426 56.6025 84.0001 34.5143 84.0001C15.4925 84.0001 8.90291 67.1897 14.9918 53.5041Z" fill="url(#paint12_radial_55_3343)"/>
<path d="M20.211 28.3711C27.5999 18.1533 31.9208 7.10031 33.2404 4.3728C31.3161 18.3426 25.7085 28.5707 15.1529 41.7421C6.7085 52.2794 5.18381 61.3001 5.25715 63.4953C2.61824 46.7317 10.9747 41.1435 20.211 28.3711Z" fill="url(#paint13_linear_55_3343)"/>
<path d="M13.8285 17.3267C9.67972 22.1905 1.43334 35.6814 1.63751 50.7351C5.72685 35.2956 15.2822 30.4299 13.8285 17.3267Z" fill="url(#paint14_linear_55_3343)"/>
<defs>
<radialGradient id="paint0_radial_55_3343" cx="0" cy="0" r="1" gradientUnits="userSpaceOnUse" gradientTransform="translate(59.1073 53.0313) rotate(-179.503) scale(54.5655 77.7228)">
<stop stop-color="#FF953D"/>
<stop offset="1" stop-color="#FF5141"/>
</radialGradient>
<radialGradient id="paint1_radial_55_3343" cx="0" cy="0" r="1" gradientUnits="userSpaceOnUse" gradientTransform="translate(15.6115 40.7786) rotate(-159.052) scale(32.7579 54.2148)">
<stop stop-color="#CE5327"/>
<stop offset="1" stop-color="#CE5327" stop-opacity="0"/>
</radialGradient>
<linearGradient id="paint2_linear_55_3343" x1="41.0263" y1="83.8477" x2="41.0263" y2="68.4802" gradientUnits="userSpaceOnUse">
<stop stop-color="#FF7583"/>
<stop offset="1" stop-color="#FF7583" stop-opacity="0"/>
</linearGradient>
<radialGradient id="paint3_radial_55_3343" cx="0" cy="0" r="1" gradientUnits="userSpaceOnUse" gradientTransform="translate(-1.66953 36.9702) rotate(22.8222) scale(9.81864 78.1618)">
<stop stop-color="#FFAA7B"/>
<stop offset="1" stop-color="#FFAA7B" stop-opacity="0"/>
</radialGradient>
<radialGradient id="paint4_radial_55_3343" cx="0" cy="0" r="1" gradientUnits="userSpaceOnUse" gradientTransform="translate(12.2222 12.4339) rotate(76.6008) scale(11.609 15.2475)">
<stop stop-color="#FF5E47"/>
<stop offset="1" stop-color="#FF5E47" stop-opacity="0"/>
</radialGradient>
<radialGradient id="paint5_radial_55_3343" cx="0" cy="0" r="1" gradientUnits="userSpaceOnUse" gradientTransform="translate(34.9394 -2.29036) rotate(87.7576) scale(30.5579 29.9413)">
<stop stop-color="#FF2F3C"/>
<stop offset="1" stop-color="#FF2F3C" stop-opacity="0"/>
</radialGradient>
<radialGradient id="paint6_radial_55_3343" cx="0" cy="0" r="1" gradientUnits="userSpaceOnUse" gradientTransform="translate(26.8688 8.05793) rotate(24.0867) scale(7.26361 14.0451)">
<stop stop-color="#FF846C"/>
<stop offset="1" stop-color="#FF846C" stop-opacity="0"/>
</radialGradient>
<radialGradient id="paint7_radial_55_3343" cx="0" cy="0" r="1" gradientUnits="userSpaceOnUse" gradientTransform="translate(22.2661 18.3375) rotate(114.433) scale(6.93156 1.65073)">
<stop stop-color="#FFA682"/>
<stop offset="1" stop-color="#FFA682" stop-opacity="0"/>
</radialGradient>
<radialGradient id="paint8_radial_55_3343" cx="0" cy="0" r="1" gradientUnits="userSpaceOnUse" gradientTransform="translate(50.1792 67.0655) rotate(-169.178) scale(31.9369 37.7238)">
<stop stop-color="#FFDA2F"/>
<stop offset="1" stop-color="#FF8E41"/>
</radialGradient>
<radialGradient id="paint9_radial_55_3343" cx="0" cy="0" r="1" gradientUnits="userSpaceOnUse" gradientTransform="translate(22.0861 19.492) rotate(67.9285) scale(42.9557 38.9133)">
<stop stop-color="#FD5639"/>
<stop offset="1" stop-color="#FE5533" stop-opacity="0"/>
</radialGradient>
<radialGradient id="paint10_radial_55_3343" cx="0" cy="0" r="1" gradientUnits="userSpaceOnUse" gradientTransform="translate(43.9066 55.7707) rotate(174.557) scale(31.2525 72.3523)">
<stop offset="0.627719" stop-color="#D7812D" stop-opacity="0"/>
<stop offset="1" stop-color="#D7812D"/>
</radialGradient>
<linearGradient id="paint11_linear_55_3343" x1="35.1742" y1="25.5792" x2="35.1742" y2="36.5726" gradientUnits="userSpaceOnUse">
<stop stop-color="#F95131"/>
<stop offset="1" stop-color="#F95131" stop-opacity="0"/>
</linearGradient>
<radialGradient id="paint12_radial_55_3343" cx="0" cy="0" r="1" gradientUnits="userSpaceOnUse" gradientTransform="translate(55.8631 50.2651) rotate(144.621) scale(50.2254 35.7191)">
<stop offset="0.772305" stop-color="#F18A52" stop-opacity="0"/>
<stop offset="1" stop-color="#F18A52"/>
</radialGradient>
<linearGradient id="paint13_linear_55_3343" x1="30.3654" y1="6.4184" x2="9.15688" y2="62.9407" gradientUnits="userSpaceOnUse">
<stop stop-color="#FF7558"/>
<stop offset="1" stop-color="#F38758"/>
</linearGradient>
<linearGradient id="paint14_linear_55_3343" x1="12.9583" y1="18.139" x2="1.55407" y2="52.7113" gradientUnits="userSpaceOnUse">
<stop stop-color="#FF815B"/>
<stop offset="1" stop-color="#FF9C6D"/>
</linearGradient>
</defs>
</svg>
