<svg width="65" height="75" viewBox="0 0 65 75" fill="none" xmlns="http://www.w3.org/2000/svg">
<path d="M32.5 63.5429C50.4493 63.5429 65 49.3183 65 31.7715C65 14.2246 50.4493 0 32.5 0C14.5507 0 0 14.2246 0 31.7715C0 49.3183 14.5507 63.5429 32.5 63.5429Z" fill="url(#paint0_radial_55_4340)"/>
<path d="M32.5 63.5429C50.4493 63.5429 65 49.3183 65 31.7715C65 14.2246 50.4493 0 32.5 0C14.5507 0 0 14.2246 0 31.7715C0 49.3183 14.5507 63.5429 32.5 63.5429Z" fill="url(#paint1_radial_55_4340)"/>
<path d="M32.5 63.5429C50.4493 63.5429 65 49.3183 65 31.7715C65 14.2246 50.4493 0 32.5 0C14.5507 0 0 14.2246 0 31.7715C0 49.3183 14.5507 63.5429 32.5 63.5429Z" fill="url(#paint2_radial_55_4340)"/>
<path d="M32.5 63.5429C50.4493 63.5429 65 49.3183 65 31.7715C65 14.2246 50.4493 0 32.5 0C14.5507 0 0 14.2246 0 31.7715C0 49.3183 14.5507 63.5429 32.5 63.5429Z" fill="url(#paint3_linear_55_4340)"/>
<path fill-rule="evenodd" clip-rule="evenodd" d="M15.8117 39.9158C15.5922 38.8391 14.7172 37.9981 13.6309 37.7197C12.41 37.4069 11.091 36.9222 9.60696 36.2173C8.37816 35.6336 8.37816 33.9717 9.60696 33.3877C11.091 32.6831 12.4101 32.1984 13.6309 31.8856C14.7172 31.6069 15.5922 30.7661 15.8117 29.6895C16.1434 28.0622 16.6871 26.0568 17.51 24.0937C18.0281 22.8578 19.6736 22.8578 20.1917 24.0937C21.0149 26.0568 21.5583 28.0622 21.8901 29.6895C22.1097 30.7661 22.9846 31.6067 24.0708 31.8864C25.2861 32.1989 26.5968 32.6828 28.0743 33.3864C29.3024 33.9711 29.3024 35.6339 28.0743 36.2189C26.5968 36.9222 25.2861 37.4061 24.0708 37.7189C22.9846 37.9983 22.1097 38.8391 21.8901 39.9158C21.5583 41.543 21.0149 43.5484 20.1917 45.5116C19.6736 46.7475 18.0281 46.7475 17.51 45.5116C16.6871 43.5484 16.1434 41.543 15.8117 39.9158Z" fill="#453852"/>
<path fill-rule="evenodd" clip-rule="evenodd" d="M15.8117 39.9158C15.5922 38.8391 14.7172 37.9981 13.6309 37.7197C12.41 37.4069 11.091 36.9222 9.60696 36.2173C8.37816 35.6336 8.37816 33.9717 9.60696 33.3877C11.091 32.6831 12.4101 32.1984 13.6309 31.8856C14.7172 31.6069 15.5922 30.7661 15.8117 29.6895C16.1434 28.0622 16.6871 26.0568 17.51 24.0937C18.0281 22.8578 19.6736 22.8578 20.1917 24.0937C21.0149 26.0568 21.5583 28.0622 21.8901 29.6895C22.1097 30.7661 22.9846 31.6067 24.0708 31.8864C25.2861 32.1989 26.5968 32.6828 28.0743 33.3864C29.3024 33.9711 29.3024 35.6339 28.0743 36.2189C26.5968 36.9222 25.2861 37.4061 24.0708 37.7189C22.9846 37.9983 22.1097 38.8391 21.8901 39.9158C21.5583 41.543 21.0149 43.5484 20.1917 45.5116C19.6736 46.7475 18.0281 46.7475 17.51 45.5116C16.6871 43.5484 16.1434 41.543 15.8117 39.9158Z" fill="url(#paint4_linear_55_4340)"/>
<path fill-rule="evenodd" clip-rule="evenodd" d="M27.2808 14.0429C27.1928 13.6112 26.842 13.2741 26.4064 13.1625C25.917 13.037 25.3882 12.8428 24.7931 12.5602C24.3006 12.3262 24.3006 11.6598 24.7931 11.4258C25.3882 11.1432 25.917 10.9489 26.4064 10.8235C26.842 10.7119 27.1928 10.3747 27.2808 9.94308C27.4137 9.29076 27.6316 8.48674 27.9615 7.6997C28.1692 7.20427 28.829 7.20427 29.0367 7.6997C29.3666 8.48674 29.5845 9.29076 29.7177 9.94308C29.8057 10.3747 30.1565 10.7118 30.5918 10.8238C31.079 10.9492 31.6045 11.1432 32.1969 11.4252C32.6891 11.6597 32.6891 12.3263 32.1969 12.5608C31.6045 12.8428 31.079 13.0368 30.5918 13.1622C30.1565 13.2742 29.8057 13.6112 29.7177 14.0429C29.5845 14.6952 29.3666 15.4992 29.0367 16.2863C28.829 16.7817 28.1692 16.7817 27.9615 16.2863C27.6316 15.4992 27.4137 14.6952 27.2808 14.0429Z" fill="url(#paint5_linear_55_4340)"/>
<path fill-rule="evenodd" clip-rule="evenodd" d="M48.622 25.6353C48.4965 25.0194 47.9958 24.5382 47.3743 24.3787C46.6754 24.1999 45.9207 23.9226 45.0717 23.5191C44.3684 23.1851 44.3684 22.234 45.0717 21.9002C45.9207 21.4968 46.6754 21.2195 47.3743 21.0404C47.9958 20.8811 48.4965 20.3999 48.622 19.7838C48.8118 18.8528 49.1227 17.7052 49.5938 16.5819C49.8903 15.8747 50.8319 15.8747 51.1284 16.5819C51.5992 17.7052 51.9104 18.8528 52.1002 19.7838C52.2257 20.3999 52.7264 20.8809 53.3479 21.0409C54.0432 21.2198 54.7932 21.4968 55.6387 21.8991C56.3414 22.234 56.3414 23.1853 55.6387 23.5199C54.7932 23.9226 54.0432 24.1993 53.3479 24.3785C52.7264 24.5382 52.2257 25.0194 52.1002 25.6353C51.9104 26.5665 51.5992 27.7142 51.1284 28.8374C50.8319 29.5445 49.8903 29.5445 49.5938 28.8374C49.1227 27.7142 48.8118 26.5665 48.622 25.6353Z" fill="url(#paint6_linear_55_4340)"/>
<path fill-rule="evenodd" clip-rule="evenodd" d="M48.622 25.6353C48.4965 25.0194 47.9958 24.5382 47.3743 24.3787C46.6754 24.1999 45.9207 23.9226 45.0717 23.5191C44.3684 23.1851 44.3684 22.234 45.0717 21.9002C45.9207 21.4968 46.6754 21.2195 47.3743 21.0404C47.9958 20.8811 48.4965 20.3999 48.622 19.7838C48.8118 18.8528 49.1227 17.7052 49.5938 16.5819C49.8903 15.8747 50.8319 15.8747 51.1284 16.5819C51.5992 17.7052 51.9104 18.8528 52.1002 19.7838C52.2257 20.3999 52.7264 20.8809 53.3479 21.0409C54.0432 21.2198 54.7932 21.4968 55.6387 21.8991C56.3414 22.234 56.3414 23.1853 55.6387 23.5199C54.7932 23.9226 54.0432 24.1993 53.3479 24.3785C52.7264 24.5382 52.2257 25.0194 52.1002 25.6353C51.9104 26.5665 51.5992 27.7142 51.1284 28.8374C50.8319 29.5445 49.8903 29.5445 49.5938 28.8374C49.1227 27.7142 48.8118 26.5665 48.622 25.6353Z" fill="url(#paint7_linear_55_4340)"/>
<path d="M12.8233 56.8447C12.5323 56.8447 12.2728 57.0239 12.1753 57.2917L8.05671 68.6047C6.94488 71.6588 9.2501 74.8718 12.566 74.8898L32.156 74.9963V74.9998L32.5 74.9982L32.8439 74.9998V74.9963L52.4338 74.8898C55.75 74.8718 58.0551 71.6588 56.9433 68.6047L52.8248 57.2917C52.7271 57.0239 52.4677 56.8447 52.1766 56.8447H12.8233Z" fill="url(#paint8_linear_55_4340)"/>
<path d="M12.8233 56.8447C12.5323 56.8447 12.2728 57.0239 12.1753 57.2917L8.05671 68.6047C6.94488 71.6588 9.2501 74.8718 12.566 74.8898L32.156 74.9963V74.9998L32.5 74.9982L32.8439 74.9998V74.9963L52.4338 74.8898C55.75 74.8718 58.0551 71.6588 56.9433 68.6047L52.8248 57.2917C52.7271 57.0239 52.4677 56.8447 52.1766 56.8447H12.8233Z" fill="url(#paint9_linear_55_4340)"/>
<path d="M12.8233 56.8447C12.5323 56.8447 12.2728 57.0239 12.1753 57.2917L8.05671 68.6047C6.94488 71.6588 9.2501 74.8718 12.566 74.8898L32.156 74.9963V74.9998L32.5 74.9982L32.8439 74.9998V74.9963L52.4338 74.8898C55.75 74.8718 58.0551 71.6588 56.9433 68.6047L52.8248 57.2917C52.7271 57.0239 52.4677 56.8447 52.1766 56.8447H12.8233Z" fill="url(#paint10_linear_55_4340)"/>
<path d="M12.8233 56.8447C12.5323 56.8447 12.2728 57.0239 12.1753 57.2917L8.05671 68.6047C6.94488 71.6588 9.2501 74.8718 12.566 74.8898L32.156 74.9963V74.9998L32.5 74.9982L32.8439 74.9998V74.9963L52.4338 74.8898C55.75 74.8718 58.0551 71.6588 56.9433 68.6047L52.8248 57.2917C52.7271 57.0239 52.4677 56.8447 52.1766 56.8447H12.8233Z" fill="url(#paint11_radial_55_4340)"/>
<path d="M12.8233 56.8447C12.5323 56.8447 12.2728 57.0239 12.1753 57.2917L8.05671 68.6047C6.94488 71.6588 9.2501 74.8718 12.566 74.8898L32.156 74.9963V74.9998L32.5 74.9982L32.8439 74.9998V74.9963L52.4338 74.8898C55.75 74.8718 58.0551 71.6588 56.9433 68.6047L52.8248 57.2917C52.7271 57.0239 52.4677 56.8447 52.1766 56.8447H12.8233Z" fill="url(#paint12_linear_55_4340)"/>
<defs>
<radialGradient id="paint0_radial_55_4340" cx="0" cy="0" r="1" gradientUnits="userSpaceOnUse" gradientTransform="translate(49.868 22.5113) rotate(126.942) scale(40.3791 40.6436)">
<stop stop-color="#7B7486"/>
<stop offset="0.787912" stop-color="#35303C"/>
</radialGradient>
<radialGradient id="paint1_radial_55_4340" cx="0" cy="0" r="1" gradientUnits="userSpaceOnUse" gradientTransform="translate(25.3815 54.1431) rotate(-54.7538) scale(39.779 49.5466)">
<stop stop-color="#5C4077"/>
<stop offset="1" stop-color="#5C4077" stop-opacity="0"/>
</radialGradient>
<radialGradient id="paint2_radial_55_4340" cx="0" cy="0" r="1" gradientUnits="userSpaceOnUse" gradientTransform="translate(12.123 58.6101) rotate(-55.7078) scale(4.88332 7.3506)">
<stop stop-color="#66547A"/>
<stop offset="1" stop-color="#66547A" stop-opacity="0"/>
</radialGradient>
<linearGradient id="paint3_linear_55_4340" x1="32.5" y1="57.1601" x2="32.5" y2="55.6684" gradientUnits="userSpaceOnUse">
<stop stop-color="#392E48"/>
<stop offset="1" stop-color="#392E48" stop-opacity="0"/>
</linearGradient>
<linearGradient id="paint4_linear_55_4340" x1="26.1409" y1="29.3293" x2="14.5753" y2="41.1702" gradientUnits="userSpaceOnUse">
<stop stop-color="#FFC154"/>
<stop offset="1" stop-color="#FFA271"/>
</linearGradient>
<linearGradient id="paint5_linear_55_4340" x1="30.9888" y1="10.0855" x2="26.9568" y2="14.1312" gradientUnits="userSpaceOnUse">
<stop offset="0.0416667" stop-color="#F2C954"/>
<stop offset="1" stop-color="#F7B669"/>
</linearGradient>
<linearGradient id="paint6_linear_55_4340" x1="53.9144" y1="19.9871" x2="48.1597" y2="25.7615" gradientUnits="userSpaceOnUse">
<stop stop-color="#FFC154"/>
<stop offset="1" stop-color="#FFA271"/>
</linearGradient>
<linearGradient id="paint7_linear_55_4340" x1="53.9144" y1="19.9871" x2="48.1597" y2="25.7615" gradientUnits="userSpaceOnUse">
<stop offset="0.0416667" stop-color="#FEC953"/>
<stop offset="1" stop-color="#EEA654"/>
</linearGradient>
<linearGradient id="paint8_linear_55_4340" x1="10.8333" y1="69.8728" x2="46.6005" y2="69.8728" gradientUnits="userSpaceOnUse">
<stop stop-color="#B9A6CD"/>
<stop offset="1" stop-color="#F1EAF6"/>
</linearGradient>
<linearGradient id="paint9_linear_55_4340" x1="56.0989" y1="62.692" x2="51.529" y2="64.2504" gradientUnits="userSpaceOnUse">
<stop stop-color="#D9D7DF"/>
<stop offset="1" stop-color="#D9D7DF" stop-opacity="0"/>
</linearGradient>
<linearGradient id="paint10_linear_55_4340" x1="34.7825" y1="75.0001" x2="34.7825" y2="69.7451" gradientUnits="userSpaceOnUse">
<stop stop-color="#CF8EEB"/>
<stop offset="1" stop-color="#CF8EEB" stop-opacity="0"/>
</linearGradient>
<radialGradient id="paint11_radial_55_4340" cx="0" cy="0" r="1" gradientUnits="userSpaceOnUse" gradientTransform="translate(35.8756 81.714) rotate(-90) scale(15.7915 40.4464)">
<stop stop-color="#CF8EEB"/>
<stop offset="1" stop-color="#CF8EEB" stop-opacity="0"/>
</radialGradient>
<linearGradient id="paint12_linear_55_4340" x1="6.90724" y1="65.9223" x2="21.4052" y2="69.6884" gradientUnits="userSpaceOnUse">
<stop stop-color="#8B8496"/>
<stop offset="1" stop-color="#8B8496" stop-opacity="0"/>
</linearGradient>
</defs>
</svg>
