<svg width="76" height="92" viewBox="0 0 76 92" fill="none" xmlns="http://www.w3.org/2000/svg">
<path d="M73.338 0.991066C73.5895 0.745503 73.9772 0.679081 74.2488 0.902088C74.818 1.36944 75.3721 2.19468 75.3721 3.50658V77.6326C75.3721 85.3507 69.1153 91.6075 61.3972 91.6075H12.7932V88.8845H9.86462V2.84045C10.0322 1.79743 10.5818 1.14242 11.1009 0.776774C11.3665 0.589708 11.7185 0.65899 11.9557 0.881043L15.0221 3.75171C15.5357 4.23248 16.3365 4.22407 16.8398 3.73264L20.2667 0.38666C20.5206 0.138795 20.8613 0 21.216 0C21.5608 0 21.893 0.131167 22.1448 0.366866L25.7602 3.75171C26.2738 4.23248 27.0745 4.22407 27.5779 3.73264L31.0049 0.38666C31.2588 0.138795 31.5994 0 31.9539 0C32.2992 0 32.6309 0.131167 32.8828 0.366866L36.4982 3.75171C37.0118 4.23248 37.8125 4.22407 38.3159 3.73264L41.7429 0.38666C41.9967 0.138795 42.3374 0 42.6922 0C43.0371 0 43.3689 0.131167 43.6208 0.366866L47.2362 3.75171C47.7498 4.23248 48.5508 4.22407 49.0539 3.73264L52.4809 0.38666C52.7347 0.138795 53.0754 0 53.4302 0C53.7751 0 54.1072 0.131167 54.3591 0.366866L57.9745 3.75171C58.4878 4.23248 59.2888 4.22407 59.7922 3.73264L63.2188 0.38666C63.4727 0.138795 63.8137 0 64.1682 0C64.5131 0 64.8452 0.131167 65.0971 0.366866L68.7125 3.75171C69.2261 4.23248 70.0267 4.22407 70.5302 3.73264L73.338 0.991066Z" fill="url(#paint0_linear_55_4341)"/>
<path d="M73.338 0.991066C73.5895 0.745503 73.9772 0.679081 74.2488 0.902088C74.818 1.36944 75.3721 2.19468 75.3721 3.50658V77.6326C75.3721 85.3507 69.1153 91.6075 61.3972 91.6075H12.7932V88.8845H9.86462V2.84045C10.0322 1.79743 10.5818 1.14242 11.1009 0.776774C11.3665 0.589708 11.7185 0.65899 11.9557 0.881043L15.0221 3.75171C15.5357 4.23248 16.3365 4.22407 16.8398 3.73264L20.2667 0.38666C20.5206 0.138795 20.8613 0 21.216 0C21.5608 0 21.893 0.131167 22.1448 0.366866L25.7602 3.75171C26.2738 4.23248 27.0745 4.22407 27.5779 3.73264L31.0049 0.38666C31.2588 0.138795 31.5994 0 31.9539 0C32.2992 0 32.6309 0.131167 32.8828 0.366866L36.4982 3.75171C37.0118 4.23248 37.8125 4.22407 38.3159 3.73264L41.7429 0.38666C41.9967 0.138795 42.3374 0 42.6922 0C43.0371 0 43.3689 0.131167 43.6208 0.366866L47.2362 3.75171C47.7498 4.23248 48.5508 4.22407 49.0539 3.73264L52.4809 0.38666C52.7347 0.138795 53.0754 0 53.4302 0C53.7751 0 54.1072 0.131167 54.3591 0.366866L57.9745 3.75171C58.4878 4.23248 59.2888 4.22407 59.7922 3.73264L63.2188 0.38666C63.4727 0.138795 63.8137 0 64.1682 0C64.5131 0 64.8452 0.131167 65.0971 0.366866L68.7125 3.75171C69.2261 4.23248 70.0267 4.22407 70.5302 3.73264L73.338 0.991066Z" fill="url(#paint1_radial_55_4341)"/>
<path d="M49.6228 78.5573C49.6228 76.7415 48.1506 75.269 46.3345 75.269H3.26762C1.46296 75.269 0 76.7323 0 78.5369C0 85.7555 5.85189 91.6075 13.0706 91.6075H59.5969C51.7206 90.9078 49.7036 83.2288 49.6228 78.8466V78.5573Z" fill="url(#paint2_linear_55_4341)"/>
<path d="M49.6228 78.5573C49.6228 76.7415 48.1506 75.269 46.3345 75.269H3.26762C1.46296 75.269 0 76.7323 0 78.5369C0 85.7555 5.85189 91.6075 13.0706 91.6075H59.5969C51.7206 90.9078 49.7036 83.2288 49.6228 78.8466V78.5573Z" fill="url(#paint3_linear_55_4341)"/>
<path d="M62.3988 13.05H22.9404C21.1669 13.05 19.7292 14.4877 19.7292 16.2612C19.7292 18.0346 21.1669 19.4723 22.9404 19.4723H62.3988C64.1723 19.4723 65.61 18.0346 65.61 16.2612C65.61 14.4877 64.1723 13.05 62.3988 13.05Z" fill="#97939D"/>
<path d="M47.4221 26.1001H21.4247C20.4883 26.1001 19.7292 26.8592 19.7292 27.7956C19.7292 28.732 20.4883 29.4911 21.4247 29.4911H47.4221C48.3585 29.4911 49.1176 28.732 49.1176 27.7956C49.1176 26.8592 48.3585 26.1001 47.4221 26.1001Z" fill="#97939D"/>
<path d="M47.4221 35.8621H21.4247C20.4883 35.8621 19.7292 36.6212 19.7292 37.5575C19.7292 38.4939 20.4883 39.253 21.4247 39.253H47.4221C48.3585 39.253 49.1176 38.4939 49.1176 37.5575C49.1176 36.6212 48.3585 35.8621 47.4221 35.8621Z" fill="#97939D"/>
<path d="M47.4221 45.8037H21.4247C20.4883 45.8037 19.7292 46.5628 19.7292 47.4992C19.7292 48.4356 20.4883 49.1947 21.4247 49.1947H47.4221C48.3585 49.1947 49.1176 48.4356 49.1176 47.4992C49.1176 46.5628 48.3585 45.8037 47.4221 45.8037Z" fill="#97939D"/>
<path d="M47.4221 55.7454H21.4247C20.4883 55.7454 19.7292 56.5045 19.7292 57.4408C19.7292 58.3772 20.4883 59.1363 21.4247 59.1363H47.4221C48.3585 59.1363 49.1176 58.3772 49.1176 57.4408C49.1176 56.5045 48.3585 55.7454 47.4221 55.7454Z" fill="#97939D"/>
<path d="M47.4221 65.687H21.4247C20.4883 65.687 19.7292 66.4461 19.7292 67.3825C19.7292 68.3189 20.4883 69.078 21.4247 69.078H47.4221C48.3585 69.078 49.1176 68.3189 49.1176 67.3825C49.1176 66.4461 48.3585 65.687 47.4221 65.687Z" fill="#97929F"/>
<path d="M63.9146 35.8621H54.2041C53.2677 35.8621 52.5086 36.6212 52.5086 37.5575C52.5086 38.4939 53.2677 39.253 54.2041 39.253H63.9146C64.851 39.253 65.6101 38.4939 65.6101 37.5575C65.6101 36.6212 64.851 35.8621 63.9146 35.8621Z" fill="#97939D"/>
<path d="M63.9146 26.1001H54.2041C53.2677 26.1001 52.5086 26.8592 52.5086 27.7956C52.5086 28.732 53.2677 29.4911 54.2041 29.4911H63.9146C64.851 29.4911 65.6101 28.732 65.6101 27.7956C65.6101 26.8592 64.851 26.1001 63.9146 26.1001Z" fill="#97939D"/>
<path d="M63.9146 45.8037H54.2041C53.2677 45.8037 52.5086 46.5628 52.5086 47.4992C52.5086 48.4356 53.2677 49.1947 54.2041 49.1947H63.9146C64.851 49.1947 65.6101 48.4356 65.6101 47.4992C65.6101 46.5628 64.851 45.8037 63.9146 45.8037Z" fill="#97939D"/>
<path d="M63.9146 55.7454H54.2041C53.2677 55.7454 52.5086 56.5045 52.5086 57.4408C52.5086 58.3772 53.2677 59.1363 54.2041 59.1363H63.9146C64.851 59.1363 65.6101 58.3772 65.6101 57.4408C65.6101 56.5045 64.851 55.7454 63.9146 55.7454Z" fill="#97939D"/>
<path d="M63.9146 65.687H54.2041C53.2677 65.687 52.5086 66.4461 52.5086 67.3825C52.5086 68.3189 53.2677 69.078 54.2041 69.078H63.9146C64.851 69.078 65.6101 68.3189 65.6101 67.3825C65.6101 66.4461 64.851 65.687 63.9146 65.687Z" fill="#9893A0"/>
<defs>
<linearGradient id="paint0_linear_55_4341" x1="16.2869" y1="48.0387" x2="75.3721" y2="48.0387" gradientUnits="userSpaceOnUse">
<stop stop-color="#DFD8E8"/>
<stop offset="1" stop-color="#E0DBEA"/>
</linearGradient>
<radialGradient id="paint1_radial_55_4341" cx="0" cy="0" r="1" gradientUnits="userSpaceOnUse" gradientTransform="translate(50.6076 96.3343) rotate(-60.0013) scale(23.0184 36.0927)">
<stop stop-color="#F9F3FE"/>
<stop offset="1" stop-color="#F9F3FE" stop-opacity="0"/>
</radialGradient>
<linearGradient id="paint2_linear_55_4341" x1="29.7985" y1="75.269" x2="29.7985" y2="91.6075" gradientUnits="userSpaceOnUse">
<stop stop-color="#DCD4E8"/>
<stop offset="1" stop-color="#C9BADD"/>
</linearGradient>
<linearGradient id="paint3_linear_55_4341" x1="38.4823" y1="91.6075" x2="38.4823" y2="83.4383" gradientUnits="userSpaceOnUse">
<stop stop-color="#A58BC5"/>
<stop offset="1" stop-color="#C7B7DD" stop-opacity="0"/>
</linearGradient>
</defs>
</svg>
