<svg width="89" height="89" viewBox="0 0 89 89" fill="none" xmlns="http://www.w3.org/2000/svg">
<path d="M37.9954 20.3301H47.1735V64.5922H37.9954V20.3301Z" fill="url(#paint0_linear_55_3344)"/>
<path d="M37.9954 20.3301H47.1735V64.5922H37.9954V20.3301Z" fill="url(#paint1_linear_55_3344)"/>
<path d="M37.9954 20.3301H47.1735V64.5922H37.9954V20.3301Z" fill="url(#paint2_linear_55_3344)"/>
<path d="M37.9954 20.3301H47.1735V64.5922H37.9954V20.3301Z" fill="url(#paint3_linear_55_3344)"/>
<path d="M37.9954 20.3301H47.1735V64.5922H37.9954V20.3301Z" fill="url(#paint4_linear_55_3344)"/>
<path d="M42.5844 21.9089H44.3702V61.5262H42.5844V21.9089Z" fill="url(#paint5_linear_55_3344)"/>
<path d="M41.0548 36.608C41.0548 25.2198 51.5651 16.728 65.9738 15.9878H86.9395C87.6513 15.9878 88.2283 16.5648 88.2283 17.2766C86.9395 29.5084 80.1358 36.9099 64.0492 37.8968H42.3436C41.6318 37.8968 41.0548 37.3199 41.0548 36.608Z" fill="url(#paint6_linear_55_3344)"/>
<path d="M41.0548 36.608C41.0548 25.2198 51.5651 16.728 65.9738 15.9878H86.9395C87.6513 15.9878 88.2283 16.5648 88.2283 17.2766C86.9395 29.5084 80.1358 36.9099 64.0492 37.8968H42.3436C41.6318 37.8968 41.0548 37.3199 41.0548 36.608Z" fill="url(#paint7_linear_55_3344)"/>
<path d="M41.0548 36.608C41.0548 25.2198 51.5651 16.728 65.9738 15.9878H86.9395C87.6513 15.9878 88.2283 16.5648 88.2283 17.2766C86.9395 29.5084 80.1358 36.9099 64.0492 37.8968H42.3436C41.6318 37.8968 41.0548 37.3199 41.0548 36.608Z" fill="url(#paint8_linear_55_3344)"/>
<path d="M41.0548 36.608C41.0548 25.2198 51.5651 16.728 65.9738 15.9878H86.9395C87.6513 15.9878 88.2283 16.5648 88.2283 17.2766C86.9395 29.5084 80.1358 36.9099 64.0492 37.8968H42.3436C41.6318 37.8968 41.0548 37.3199 41.0548 36.608Z" fill="url(#paint9_radial_55_3344)"/>
<path d="M44.039 34.4306C44.039 25.6077 54.2502 19.029 65.7004 18.4556H84.2799C84.8455 18.4556 85.3041 18.9026 85.3041 19.454C84.2799 28.9302 76.9545 34.6643 64.171 35.4289H45.0631C44.4975 35.4289 44.039 34.982 44.039 34.4306Z" fill="url(#paint10_linear_55_3344)"/>
<path d="M47.1735 20.6203C47.1735 9.23202 36.6632 0.740186 22.2545 0H1.28877C0.577009 0 0 0.577009 0 1.28877C1.28877 13.5204 8.09253 20.9221 24.1789 21.909H45.8847C46.5965 21.909 47.1735 21.332 47.1735 20.6203Z" fill="url(#paint11_linear_55_3344)"/>
<path d="M44.3702 17.6161C44.3702 9.76739 35.5011 3.91491 23.3425 3.40479H5.65074C5.05011 3.40479 4.56323 3.80245 4.56323 4.29302C5.65074 12.723 11.392 17.8241 24.9664 18.5043H43.2826C43.8832 18.5043 44.3702 18.1066 44.3702 17.6161Z" fill="url(#paint12_linear_55_3344)"/>
<path d="M42.6805 59.8057C26.7029 59.8057 13.6478 71.7611 12.7897 86.815C12.74 87.6853 13.4517 88.3937 14.3238 88.3937H71.0702C71.9421 88.3937 72.6539 87.6853 72.6044 86.815C71.746 71.7611 58.6896 59.8057 42.6805 59.8057Z" fill="url(#paint13_radial_55_3344)"/>
<path d="M42.6805 59.8057C26.7029 59.8057 13.6478 71.7611 12.7897 86.815C12.74 87.6853 13.4517 88.3937 14.3238 88.3937H71.0702C71.9421 88.3937 72.6539 87.6853 72.6044 86.815C71.746 71.7611 58.6896 59.8057 42.6805 59.8057Z" fill="url(#paint14_linear_55_3344)"/>
<path d="M42.6805 59.8057C26.7029 59.8057 13.6478 71.7611 12.7897 86.815C12.74 87.6853 13.4517 88.3937 14.3238 88.3937H71.0702C71.9421 88.3937 72.6539 87.6853 72.6044 86.815C71.746 71.7611 58.6896 59.8057 42.6805 59.8057Z" fill="url(#paint15_radial_55_3344)"/>
<path d="M42.6805 59.8057C26.7029 59.8057 13.6478 71.7611 12.7897 86.815C12.74 87.6853 13.4517 88.3937 14.3238 88.3937H71.0702C71.9421 88.3937 72.6539 87.6853 72.6044 86.815C71.746 71.7611 58.6896 59.8057 42.6805 59.8057Z" fill="url(#paint16_radial_55_3344)"/>
<path d="M30.5185 4.04614C34.1699 4.73697 42.0255 8.32926 44.2362 17.1718" stroke="url(#paint17_linear_55_3344)" stroke-width="1.57903" stroke-linecap="round"/>
<defs>
<linearGradient id="paint0_linear_55_3344" x1="42.5847" y1="17.9505" x2="42.5847" y2="54.439" gradientUnits="userSpaceOnUse">
<stop stop-color="#82BB30"/>
<stop offset="1" stop-color="#94D22F"/>
</linearGradient>
<linearGradient id="paint1_linear_55_3344" x1="42.5847" y1="17.9505" x2="42.5847" y2="54.439" gradientUnits="userSpaceOnUse">
<stop stop-color="#82BB30"/>
<stop offset="1" stop-color="#97D630"/>
</linearGradient>
<linearGradient id="paint2_linear_55_3344" x1="36.9867" y1="51.7237" x2="40.933" y2="51.7237" gradientUnits="userSpaceOnUse">
<stop stop-color="#86B95C"/>
<stop offset="1" stop-color="#86B95C" stop-opacity="0"/>
</linearGradient>
<linearGradient id="paint3_linear_55_3344" x1="40.0421" y1="20.3301" x2="41.1879" y2="24.0989" gradientUnits="userSpaceOnUse">
<stop stop-color="#86B95C"/>
<stop offset="1" stop-color="#86B95C" stop-opacity="0"/>
</linearGradient>
<linearGradient id="paint4_linear_55_3344" x1="48.1896" y1="36.511" x2="45.198" y2="36.7021" gradientUnits="userSpaceOnUse">
<stop stop-color="#86B95C"/>
<stop offset="1" stop-color="#86B95C" stop-opacity="0"/>
</linearGradient>
<linearGradient id="paint5_linear_55_3344" x1="43.4772" y1="21.9089" x2="43.4772" y2="61.5262" gradientUnits="userSpaceOnUse">
<stop stop-color="#9ED75B"/>
<stop offset="1" stop-color="#BCF461"/>
</linearGradient>
<linearGradient id="paint6_linear_55_3344" x1="56.5915" y1="37.8968" x2="85.362" y2="13.6601" gradientUnits="userSpaceOnUse">
<stop stop-color="#8DB746"/>
<stop offset="1" stop-color="#ABEE48"/>
</linearGradient>
<linearGradient id="paint7_linear_55_3344" x1="63.2111" y1="38.4842" x2="63.2111" y2="35.8109" gradientUnits="userSpaceOnUse">
<stop stop-color="#97B86E"/>
<stop offset="1" stop-color="#97B86E" stop-opacity="0"/>
</linearGradient>
<linearGradient id="paint8_linear_55_3344" x1="48.1838" y1="18.6524" x2="53.3156" y2="24.6725" gradientUnits="userSpaceOnUse">
<stop stop-color="#6CAF09"/>
<stop offset="1" stop-color="#6CAF09" stop-opacity="0"/>
</linearGradient>
<radialGradient id="paint9_radial_55_3344" cx="0" cy="0" r="1" gradientUnits="userSpaceOnUse" gradientTransform="translate(89.14 15.9878) rotate(145.134) scale(14.6742 1.71697)">
<stop stop-color="#CBFF78"/>
<stop offset="1" stop-color="#CBFF78" stop-opacity="0"/>
</radialGradient>
<linearGradient id="paint10_linear_55_3344" x1="58.2446" y1="35.4289" x2="80.6232" y2="16.0915" gradientUnits="userSpaceOnUse">
<stop stop-color="#A0CC4C"/>
<stop offset="1" stop-color="#C2FD65"/>
</linearGradient>
<linearGradient id="paint11_linear_55_3344" x1="50.3549" y1="20.33" x2="3.18158" y2="-1.97379" gradientUnits="userSpaceOnUse">
<stop stop-color="#97DA22"/>
<stop offset="1" stop-color="#90CD2F"/>
</linearGradient>
<linearGradient id="paint12_linear_55_3344" x1="47.0549" y1="17.416" x2="13.212" y2="-0.78549" gradientUnits="userSpaceOnUse">
<stop stop-color="#B6EB53"/>
<stop offset="1" stop-color="#A0D930"/>
</linearGradient>
<radialGradient id="paint13_radial_55_3344" cx="0" cy="0" r="1" gradientUnits="userSpaceOnUse" gradientTransform="translate(56.6382 90.7764) rotate(-135.607) scale(35.4315 33.8364)">
<stop stop-color="#BF8B88"/>
<stop offset="1" stop-color="#835146"/>
</radialGradient>
<linearGradient id="paint14_linear_55_3344" x1="42.6969" y1="88.7846" x2="42.6969" y2="86.97" gradientUnits="userSpaceOnUse">
<stop stop-color="#964972"/>
<stop offset="1" stop-color="#964972" stop-opacity="0"/>
</linearGradient>
<radialGradient id="paint15_radial_55_3344" cx="0" cy="0" r="1" gradientUnits="userSpaceOnUse" gradientTransform="translate(31.0718 92.7865) rotate(-75.2592) scale(21.8504 15.8244)">
<stop stop-color="#A3646D"/>
<stop offset="1" stop-color="#A3646D" stop-opacity="0"/>
</radialGradient>
<radialGradient id="paint16_radial_55_3344" cx="0" cy="0" r="1" gradientUnits="userSpaceOnUse" gradientTransform="translate(73.8354 59.8057) rotate(134.291) scale(19.9693 36.4105)">
<stop stop-color="#BF8B88"/>
<stop offset="1" stop-color="#BF8B88" stop-opacity="0"/>
</radialGradient>
<linearGradient id="paint17_linear_55_3344" x1="42.4598" y1="15.3954" x2="38.0578" y2="0.701852" gradientUnits="userSpaceOnUse">
<stop stop-color="#D1FF77"/>
<stop offset="1" stop-color="#D1FF77" stop-opacity="0"/>
</linearGradient>
</defs>
</svg>
