<svg width="89" height="73" viewBox="0 0 89 73" fill="none" xmlns="http://www.w3.org/2000/svg">
<path d="M3.972 9.53271C1.77831 9.53271 0 11.3112 0 13.5047V65.5878C0 67.7813 1.77831 69.5598 3.972 69.5598H38.9395C39.9513 71.3739 41.8893 72.6008 44.1139 72.6008C46.3386 72.6008 48.2769 71.3739 49.2887 69.5598H84.2563C86.4498 69.5598 88.2283 67.7813 88.2283 65.5878V13.5047C88.2283 11.3112 86.4498 9.53271 84.2563 9.53271H3.972Z" fill="#3E6ACA"/>
<path d="M3.972 6.45459C1.77831 6.45459 0 8.23278 0 10.4266V62.5094C0 64.7032 1.77831 66.4814 3.972 66.4814H38.9395C39.9513 68.2955 41.8893 69.5227 44.1139 69.5227C46.3386 69.5227 48.2769 68.2955 49.2887 66.4814H84.2563C86.4498 66.4814 88.2283 64.7032 88.2283 62.5094V10.4266C88.2283 8.23278 86.4498 6.45459 84.2563 6.45459H3.972Z" fill="url(#paint0_linear_55_3342)"/>
<path d="M7.88756 3.37622L2.91267 9.54601C2.47321 10.091 2.23425 10.764 2.23425 11.4573V56.8786C2.23425 59.0149 4.01253 60.7467 6.20626 60.7467H80.6815C82.875 60.7467 84.6535 59.0149 84.6535 56.8786V11.4573C84.6535 10.764 84.4145 10.091 83.9747 9.54601L78.9999 3.37622L73.1483 49.9159H13.7392L7.88756 3.37622Z" fill="#3F9BEA"/>
<path d="M39.5461 56.1543H48.6817V61.1692C48.6817 63.6919 46.6365 65.737 44.1139 65.737C41.5912 65.737 39.5461 63.6919 39.5461 61.1689V56.1543Z" fill="url(#paint1_radial_55_3342)"/>
<path d="M39.5461 56.1543H48.6817V61.1692C48.6817 63.6919 46.6365 65.737 44.1139 65.737C41.5912 65.737 39.5461 63.6919 39.5461 61.1689V56.1543Z" fill="url(#paint2_linear_55_3342)"/>
<path d="M3.48367 7.70085L8.45849 1.36548L14.3102 49.1536H44.0148V60.2752H6.77722C4.58353 60.2752 2.80522 58.497 2.80522 56.3032V9.66334C2.80522 8.95156 3.04411 8.26043 3.48367 7.70085Z" fill="url(#paint3_linear_55_3342)"/>
<path d="M84.5457 7.70085L79.5708 1.36548L73.7193 49.1536H44.0148V60.2752H81.2521C83.4459 60.2752 85.2241 58.497 85.2241 56.3032V9.66334C85.2241 8.95156 84.9855 8.26043 84.5457 7.70085Z" fill="url(#paint4_linear_55_3342)"/>
<path d="M84.5457 7.70085L79.5708 1.36548L73.7193 49.1536H44.0148V60.2752H81.2521C83.4459 60.2752 85.2241 58.497 85.2241 56.3032V9.66334C85.2241 8.95156 84.9855 8.26043 84.5457 7.70085Z" fill="url(#paint5_linear_55_3342)"/>
<path d="M84.5457 7.70085L79.5708 1.36548L73.7193 49.1536H44.0148V60.2752H81.2521C83.4459 60.2752 85.2241 58.497 85.2241 56.3032V9.66334C85.2241 8.95156 84.9855 8.26043 84.5457 7.70085Z" fill="url(#paint6_linear_55_3342)"/>
<path d="M7.86954 3.1776C7.86954 1.42268 9.29218 0 11.0471 0H36.0708C40.4581 0 44.0148 3.55666 44.0148 7.94385V60.2504C44.0148 56.754 40.4152 53.9199 36.2446 53.9199H11.8415C9.64785 53.9199 7.86954 52.1417 7.86954 49.9479V3.1776Z" fill="url(#paint7_linear_55_3342)"/>
<path d="M7.86954 3.1776C7.86954 1.42268 9.29218 0 11.0471 0H36.0708C40.4581 0 44.0148 3.55666 44.0148 7.94385V60.2504C44.0148 56.754 40.4152 53.9199 36.2446 53.9199H11.8415C9.64785 53.9199 7.86954 52.1417 7.86954 49.9479V3.1776Z" fill="url(#paint8_linear_55_3342)"/>
<path d="M7.86954 3.1776C7.86954 1.42268 9.29218 0 11.0471 0H36.0708C40.4581 0 44.0148 3.55666 44.0148 7.94385V60.2504C44.0148 56.754 40.4152 53.9199 36.2446 53.9199H11.8415C9.64785 53.9199 7.86954 52.1417 7.86954 49.9479V3.1776Z" fill="url(#paint9_linear_55_3342)"/>
<path d="M80.16 3.1776C80.16 1.42268 78.7374 0 76.9824 0H51.9588C47.5714 0 44.0148 3.55666 44.0148 7.94385V60.2504C44.0148 56.754 47.6143 53.9199 51.7849 53.9199H76.188C78.3815 53.9199 80.16 52.1417 80.16 49.9479V3.1776Z" fill="url(#paint10_linear_55_3342)"/>
<path d="M80.16 3.1776C80.16 1.42268 78.7374 0 76.9824 0H51.9588C47.5714 0 44.0148 3.55666 44.0148 7.94385V60.2504C44.0148 56.754 47.6143 53.9199 51.7849 53.9199H76.188C78.3815 53.9199 80.16 52.1417 80.16 49.9479V3.1776Z" fill="url(#paint11_linear_55_3342)"/>
<path d="M80.16 3.1776C80.16 1.42268 78.7374 0 76.9824 0H51.9588C47.5714 0 44.0148 3.55666 44.0148 7.94385V60.2504C44.0148 56.754 47.6143 53.9199 51.7849 53.9199H76.188C78.3815 53.9199 80.16 52.1417 80.16 49.9479V3.1776Z" fill="url(#paint12_linear_55_3342)"/>
<defs>
<linearGradient id="paint0_linear_55_3342" x1="44.1139" y1="20.3566" x2="44.1139" y2="69.5227" gradientUnits="userSpaceOnUse">
<stop stop-color="#5DD8FB"/>
<stop offset="1" stop-color="#41AEF2"/>
</linearGradient>
<radialGradient id="paint1_radial_55_3342" cx="0" cy="0" r="1" gradientUnits="userSpaceOnUse" gradientTransform="translate(41.4577 65.1412) rotate(-26.565) scale(7.10534 9.96966)">
<stop offset="0.231937" stop-color="#306AB3"/>
<stop offset="1" stop-color="#1A4CA8"/>
</radialGradient>
<linearGradient id="paint2_linear_55_3342" x1="44.1139" y1="59.5804" x2="44.1139" y2="61.9636" gradientUnits="userSpaceOnUse">
<stop stop-color="#1748A6"/>
<stop offset="1" stop-color="#1748A6" stop-opacity="0"/>
</linearGradient>
<linearGradient id="paint3_linear_55_3342" x1="32.3717" y1="65.5383" x2="9.33421" y2="44.1886" gradientUnits="userSpaceOnUse">
<stop offset="0.749863" stop-color="#B3A9CF"/>
<stop offset="0.931655" stop-color="#B6BAC5"/>
</linearGradient>
<linearGradient id="paint4_linear_55_3342" x1="55.6575" y1="65.5383" x2="78.6951" y2="44.1886" gradientUnits="userSpaceOnUse">
<stop offset="0.71707" stop-color="#BBB3D9"/>
<stop offset="0.912508" stop-color="#DCDDE8"/>
</linearGradient>
<linearGradient id="paint5_linear_55_3342" x1="81.5" y1="2.71752" x2="81.5" y2="16.8291" gradientUnits="userSpaceOnUse">
<stop stop-color="#D8DAE2"/>
<stop offset="1" stop-color="#D8DAE2" stop-opacity="0"/>
</linearGradient>
<linearGradient id="paint6_linear_55_3342" x1="44.0148" y1="60.2752" x2="49.1536" y2="54.2181" gradientUnits="userSpaceOnUse">
<stop stop-color="#A699C9"/>
<stop offset="1" stop-color="#A699C9" stop-opacity="0"/>
</linearGradient>
<linearGradient id="paint7_linear_55_3342" x1="7.86954" y1="30.1251" x2="41.3087" y2="30.1251" gradientUnits="userSpaceOnUse">
<stop stop-color="#F3F1FA"/>
<stop offset="1" stop-color="#F0EBF9"/>
</linearGradient>
<linearGradient id="paint8_linear_55_3342" x1="44.0148" y1="56.1045" x2="35.3507" y2="56.1045" gradientUnits="userSpaceOnUse">
<stop stop-color="#D5CCE8"/>
<stop offset="1" stop-color="#F2EBFF" stop-opacity="0"/>
</linearGradient>
<linearGradient id="paint9_linear_55_3342" x1="44.1886" y1="56.7998" x2="43.4933" y2="56.7998" gradientUnits="userSpaceOnUse">
<stop offset="0.178572" stop-color="#BFB3D1"/>
<stop offset="1" stop-color="#BFB3D1" stop-opacity="0"/>
</linearGradient>
<linearGradient id="paint10_linear_55_3342" x1="44.0148" y1="30.1251" x2="77.4539" y2="30.1251" gradientUnits="userSpaceOnUse">
<stop stop-color="#F3F1FA"/>
<stop offset="1" stop-color="#F0EBF9"/>
</linearGradient>
<linearGradient id="paint11_linear_55_3342" x1="44.0148" y1="56.1045" x2="52.927" y2="56.1045" gradientUnits="userSpaceOnUse">
<stop stop-color="#D5CCE8"/>
<stop offset="1" stop-color="#F2EBFF" stop-opacity="0"/>
</linearGradient>
<linearGradient id="paint12_linear_55_3342" x1="43.9277" y1="56.7995" x2="44.5858" y2="56.7995" gradientUnits="userSpaceOnUse">
<stop stop-color="#BFB3D1"/>
<stop offset="1" stop-color="#BFB3D1" stop-opacity="0"/>
</linearGradient>
</defs>
</svg>
