<svg width="75" height="90" viewBox="0 0 75 90" fill="none" xmlns="http://www.w3.org/2000/svg">
<path fill-rule="evenodd" clip-rule="evenodd" d="M65.584 15.4952C62.6944 14.6879 59.6911 16.3637 58.8587 19.2669C58.435 20.7443 56.8941 21.5984 55.4167 21.1748C53.9393 20.7511 53.0853 19.2101 53.5089 17.7327C55.1774 11.9136 61.2071 8.5172 67.0408 10.1236C67.1497 10.1507 67.3684 10.2056 67.5659 10.2714C75.5727 12.9403 76.2099 23.8051 69.0289 27.7756C69.0286 27.7759 69.0292 27.7756 69.0289 27.7756L53.0667 36.6078C51.7219 37.352 50.0287 36.8651 49.2846 35.5203C48.5404 34.1756 49.0273 32.482 50.372 31.7382L66.3343 22.9059C69.4882 21.1625 68.9775 16.6252 65.8242 15.5575L65.8043 15.552C65.769 15.5426 65.7266 15.5319 65.6579 15.5148C65.6331 15.5086 65.6084 15.5021 65.584 15.4952Z" fill="#FFD340"/>
<path fill-rule="evenodd" clip-rule="evenodd" d="M65.584 15.4952C62.6944 14.6879 59.6911 16.3637 58.8587 19.2669C58.435 20.7443 56.8941 21.5984 55.4167 21.1748C53.9393 20.7511 53.0853 19.2101 53.5089 17.7327C55.1774 11.9136 61.2071 8.5172 67.0408 10.1236C67.1497 10.1507 67.3684 10.2056 67.5659 10.2714C75.5727 12.9403 76.2099 23.8051 69.0289 27.7756C69.0286 27.7759 69.0292 27.7756 69.0289 27.7756L53.0667 36.6078C51.7219 37.352 50.0287 36.8651 49.2846 35.5203C48.5404 34.1756 49.0273 32.482 50.372 31.7382L66.3343 22.9059C69.4882 21.1625 68.9775 16.6252 65.8242 15.5575L65.8043 15.552C65.769 15.5426 65.7266 15.5319 65.6579 15.5148C65.6331 15.5086 65.6084 15.5021 65.584 15.4952Z" fill="url(#paint0_linear_215_1078)"/>
<path fill-rule="evenodd" clip-rule="evenodd" d="M65.584 15.4952C62.6944 14.6879 59.6911 16.3637 58.8587 19.2669C58.435 20.7443 56.8941 21.5984 55.4167 21.1748C53.9393 20.7511 53.0853 19.2101 53.5089 17.7327C55.1774 11.9136 61.2071 8.5172 67.0408 10.1236C67.1497 10.1507 67.3684 10.2056 67.5659 10.2714C75.5727 12.9403 76.2099 23.8051 69.0289 27.7756C69.0286 27.7759 69.0292 27.7756 69.0289 27.7756L53.0667 36.6078C51.7219 37.352 50.0287 36.8651 49.2846 35.5203C48.5404 34.1756 49.0273 32.482 50.372 31.7382L66.3343 22.9059C69.4882 21.1625 68.9775 16.6252 65.8242 15.5575L65.8043 15.552C65.769 15.5426 65.7266 15.5319 65.6579 15.5148C65.6331 15.5086 65.6084 15.5021 65.584 15.4952Z" fill="url(#paint1_radial_215_1078)"/>
<path fill-rule="evenodd" clip-rule="evenodd" d="M6.97873 10.1236C12.8125 8.5172 18.842 11.9136 20.5108 17.7327C20.9344 19.2101 20.0801 20.7511 18.6028 21.1748C17.1255 21.5984 15.5844 20.7443 15.1608 19.2669C14.3283 16.3637 11.3249 14.6879 8.4356 15.4952C8.41103 15.5021 8.38639 15.5086 8.36166 15.5148C8.29303 15.5319 8.25054 15.5426 8.21517 15.552L8.19542 15.5575C5.04191 16.6252 4.53038 21.1619 7.68415 22.9053L23.6473 31.7382C24.9921 32.482 25.479 34.1756 24.7351 35.5203C23.991 36.8651 22.2974 37.352 20.9527 36.6078L4.99155 27.7762C4.99123 27.7759 4.99187 27.7762 4.99155 27.7762C-2.1893 23.8057 -1.55331 12.9403 6.45349 10.2714C6.65104 10.2056 6.86973 10.1507 6.97873 10.1236Z" fill="#EAA73A"/>
<path fill-rule="evenodd" clip-rule="evenodd" d="M6.97873 10.1236C12.8125 8.5172 18.842 11.9136 20.5108 17.7327C20.9344 19.2101 20.0801 20.7511 18.6028 21.1748C17.1255 21.5984 15.5844 20.7443 15.1608 19.2669C14.3283 16.3637 11.3249 14.6879 8.4356 15.4952C8.41103 15.5021 8.38639 15.5086 8.36166 15.5148C8.29303 15.5319 8.25054 15.5426 8.21517 15.552L8.19542 15.5575C5.04191 16.6252 4.53038 21.1619 7.68415 22.9053L23.6473 31.7382C24.9921 32.482 25.479 34.1756 24.7351 35.5203C23.991 36.8651 22.2974 37.352 20.9527 36.6078L4.99155 27.7762C4.99123 27.7759 4.99187 27.7762 4.99155 27.7762C-2.1893 23.8057 -1.55331 12.9403 6.45349 10.2714C6.65104 10.2056 6.86973 10.1507 6.97873 10.1236Z" fill="url(#paint2_linear_215_1078)"/>
<path d="M42.3735 49.8129V36.2595H31.646V49.8129C31.646 52.1896 30.5862 54.4699 28.7555 55.9794L22.589 61.1182H51.4302L45.2637 55.9794C43.433 54.4378 42.3735 52.1896 42.3735 49.8129Z" fill="url(#paint3_linear_215_1078)"/>
<path d="M42.3735 49.8129V36.2595H31.646V49.8129C31.646 52.1896 30.5862 54.4699 28.7555 55.9794L22.589 61.1182H51.4302L45.2637 55.9794C43.433 54.4378 42.3735 52.1896 42.3735 49.8129Z" fill="url(#paint4_radial_215_1078)"/>
<path d="M42.3735 49.8129V36.2595H31.646V49.8129C31.646 52.1896 30.5862 54.4699 28.7555 55.9794L22.589 61.1182H51.4302L45.2637 55.9794C43.433 54.4378 42.3735 52.1896 42.3735 49.8129Z" fill="url(#paint5_radial_215_1078)"/>
<path d="M37.01 46.6983C24.6449 46.6983 14.6242 36.6777 14.6242 24.3126V2.28028C14.6242 1.02772 15.652 0 16.9045 0H57.1474C58.4 0 59.4277 1.02772 59.4277 2.28028V24.3126C59.4277 36.6777 49.4072 46.6983 37.01 46.6983Z" fill="#EA873A"/>
<path d="M37.01 46.6983C24.6449 46.6983 14.6242 36.6777 14.6242 24.3126V2.28028C14.6242 1.02772 15.652 0 16.9045 0H57.1474C58.4 0 59.4277 1.02772 59.4277 2.28028V24.3126C59.4277 36.6777 49.4072 46.6983 37.01 46.6983Z" fill="url(#paint6_radial_215_1078)"/>
<path d="M37.01 46.6983C24.6449 46.6983 14.6242 36.6777 14.6242 24.3126V2.28028C14.6242 1.02772 15.652 0 16.9045 0H57.1474C58.4 0 59.4277 1.02772 59.4277 2.28028V24.3126C59.4277 36.6777 49.4072 46.6983 37.01 46.6983Z" fill="url(#paint7_radial_215_1078)"/>
<path d="M37.01 46.6983C24.6449 46.6983 14.6242 36.6777 14.6242 24.3126V2.28028C14.6242 1.02772 15.652 0 16.9045 0H57.1474C58.4 0 59.4277 1.02772 59.4277 2.28028V24.3126C59.4277 36.6777 49.4072 46.6983 37.01 46.6983Z" fill="url(#paint8_radial_215_1078)"/>
<path d="M59.235 61.1189H14.7848C12.4402 61.1189 10.449 62.7569 9.99935 65.0372L5.08543 87.8082C4.86061 88.8681 5.66351 89.8637 6.75549 89.8637H67.2964C68.3884 89.8637 69.1914 88.8681 68.9665 87.8082L64.0526 65.0372C63.5709 62.7569 61.5796 61.1189 59.235 61.1189Z" fill="url(#paint9_linear_215_1078)"/>
<path d="M59.235 61.1189H14.7848C12.4402 61.1189 10.449 62.7569 9.99935 65.0372L5.08543 87.8082C4.86061 88.8681 5.66351 89.8637 6.75549 89.8637H67.2964C68.3884 89.8637 69.1914 88.8681 68.9665 87.8082L64.0526 65.0372C63.5709 62.7569 61.5796 61.1189 59.235 61.1189Z" fill="url(#paint10_linear_215_1078)"/>
<path d="M59.235 61.1189H14.7848C12.4402 61.1189 10.449 62.7569 9.99935 65.0372L5.08543 87.8082C4.86061 88.8681 5.66351 89.8637 6.75549 89.8637H67.2964C68.3884 89.8637 69.1914 88.8681 68.9665 87.8082L64.0526 65.0372C63.5709 62.7569 61.5796 61.1189 59.235 61.1189Z" fill="url(#paint11_linear_215_1078)"/>
<path d="M45.823 70.2532H26.4884C25.3643 70.2532 24.433 71.1525 24.433 72.3087V78.1219C24.433 79.246 25.3322 80.1774 26.4884 80.1774H45.823C46.9471 80.1774 47.8785 79.2781 47.8785 78.1219V72.3087C47.8785 71.1846 46.9792 70.2532 45.823 70.2532Z" fill="#914556"/>
<path d="M46.677 69.6619H27.3425C26.2184 69.6619 25.287 70.5611 25.287 71.7174V77.5306C25.287 78.6547 26.1862 79.5861 27.3425 79.5861H46.677C47.8011 79.5861 48.7325 78.6868 48.7325 77.5306V71.7174C48.7325 70.5933 47.8332 69.6619 46.677 69.6619Z" fill="url(#paint12_linear_215_1078)"/>
<defs>
<linearGradient id="paint0_linear_215_1078" x1="58.138" y1="31.9062" x2="69.8016" y2="21.3836" gradientUnits="userSpaceOnUse">
<stop stop-color="#FEC551"/>
<stop offset="1" stop-color="#FEC551" stop-opacity="0"/>
</linearGradient>
<radialGradient id="paint1_radial_215_1078" cx="0" cy="0" r="1" gradientUnits="userSpaceOnUse" gradientTransform="translate(58.2648 22.1443) rotate(-21.5519) scale(16.2207 14.9418)">
<stop offset="0.72717" stop-color="#FFEC6A" stop-opacity="0"/>
<stop offset="1" stop-color="#FFEC6A"/>
</radialGradient>
<linearGradient id="paint2_linear_215_1078" x1="17.4422" y1="19.1016" x2="9.45515" y2="16.8196" gradientUnits="userSpaceOnUse">
<stop stop-color="#D27840"/>
<stop offset="1" stop-color="#D27840" stop-opacity="0"/>
</linearGradient>
<linearGradient id="paint3_linear_215_1078" x1="41.1707" y1="57.0072" x2="24.9114" y2="57.0072" gradientUnits="userSpaceOnUse">
<stop stop-color="#FBC33A"/>
<stop offset="1" stop-color="#DB7B3C"/>
</linearGradient>
<radialGradient id="paint4_radial_215_1078" cx="0" cy="0" r="1" gradientUnits="userSpaceOnUse" gradientTransform="translate(42.0742 48.6888) rotate(90) scale(6.71248 6.12233)">
<stop offset="0.192585" stop-color="#FFE469"/>
<stop offset="1" stop-color="#FFE469" stop-opacity="0"/>
</radialGradient>
<radialGradient id="paint5_radial_215_1078" cx="0" cy="0" r="1" gradientUnits="userSpaceOnUse" gradientTransform="translate(49.0009 58.9098) rotate(149.162) scale(7.30642 11.0934)">
<stop stop-color="#FFD34D"/>
<stop offset="1" stop-color="#FFD34D" stop-opacity="0"/>
</radialGradient>
<radialGradient id="paint6_radial_215_1078" cx="0" cy="0" r="1" gradientUnits="userSpaceOnUse" gradientTransform="translate(45.1857 3.61318) rotate(83.702) scale(39.9014 25.6217)">
<stop offset="0.120527" stop-color="#FFFA73"/>
<stop offset="1" stop-color="#FFFA73" stop-opacity="0"/>
</radialGradient>
<radialGradient id="paint7_radial_215_1078" cx="0" cy="0" r="1" gradientUnits="userSpaceOnUse" gradientTransform="translate(45.443) rotate(90) scale(2.26212 25.2811)">
<stop stop-color="#FFF45B"/>
<stop offset="1" stop-color="#FFF45B" stop-opacity="0"/>
</radialGradient>
<radialGradient id="paint8_radial_215_1078" cx="0" cy="0" r="1" gradientUnits="userSpaceOnUse" gradientTransform="translate(47.7952 8.83221) rotate(121.572) scale(42.1733 40.4621)">
<stop offset="0.787409" stop-color="#C55D73" stop-opacity="0"/>
<stop offset="1" stop-color="#C55D73"/>
</radialGradient>
<linearGradient id="paint9_linear_215_1078" x1="5.04657" y1="75.4823" x2="68.9919" y2="75.4823" gradientUnits="userSpaceOnUse">
<stop stop-color="#9D5B6C"/>
<stop offset="1" stop-color="#955569"/>
</linearGradient>
<linearGradient id="paint10_linear_215_1078" x1="37.026" y1="91.1121" x2="37.026" y2="85.8892" gradientUnits="userSpaceOnUse">
<stop stop-color="#8C3A79"/>
<stop offset="1" stop-color="#8C3A79" stop-opacity="0"/>
</linearGradient>
<linearGradient id="paint11_linear_215_1078" x1="66.5979" y1="78.7576" x2="63.5847" y2="79.461" gradientUnits="userSpaceOnUse">
<stop stop-color="#B0817C"/>
<stop offset="1" stop-color="#B0817C" stop-opacity="0"/>
</linearGradient>
<linearGradient id="paint12_linear_215_1078" x1="49.9349" y1="74.624" x2="25.287" y2="74.6236" gradientUnits="userSpaceOnUse">
<stop stop-color="#FFE767"/>
<stop offset="1" stop-color="#FEBB5B"/>
</linearGradient>
</defs>
</svg>
