<svg width="71" height="76" viewBox="0 0 71 76" fill="none" xmlns="http://www.w3.org/2000/svg">
<path d="M1.58188 40.4416C1.58188 40.0613 1.90864 39.7527 2.31171 39.7527H62.9719C63.375 39.7527 63.7017 40.0613 63.7017 40.4416V70.7644C63.7017 73.6559 61.2186 76.0001 58.155 76.0001H7.12856C4.06522 76.0001 1.58188 73.6559 1.58188 70.7644V40.4416Z" fill="url(#paint0_linear_55_3345)"/>
<path d="M1.58188 40.4416C1.58188 40.0613 1.90864 39.7527 2.31171 39.7527H62.9719C63.375 39.7527 63.7017 40.0613 63.7017 40.4416V70.7644C63.7017 73.6559 61.2186 76.0001 58.155 76.0001H7.12856C4.06522 76.0001 1.58188 73.6559 1.58188 70.7644V40.4416Z" fill="url(#paint1_linear_55_3345)"/>
<path d="M1.58188 40.4416C1.58188 40.0613 1.90864 39.7527 2.31171 39.7527H62.9719C63.375 39.7527 63.7017 40.0613 63.7017 40.4416V70.7644C63.7017 73.6559 61.2186 76.0001 58.155 76.0001H7.12856C4.06522 76.0001 1.58188 73.6559 1.58188 70.7644V40.4416Z" fill="url(#paint2_linear_55_3345)"/>
<path d="M8.88016 40.4416C8.88016 40.0613 9.20692 39.7527 9.60998 39.7527H70.2702C70.6733 39.7527 71 40.0613 71 40.4416V70.7644C71 73.6559 68.5168 76.0001 65.4533 76.0001H14.4268C11.3635 76.0001 8.88016 73.6559 8.88016 70.7644V40.4416Z" fill="url(#paint3_linear_55_3345)"/>
<path d="M8.88016 40.4416C8.88016 40.0613 9.20692 39.7527 9.60998 39.7527H70.2702C70.6733 39.7527 71 40.0613 71 40.4416V70.7644C71 73.6559 68.5168 76.0001 65.4533 76.0001H14.4268C11.3635 76.0001 8.88016 73.6559 8.88016 70.7644V40.4416Z" fill="url(#paint4_linear_55_3345)"/>
<path d="M1.58188 29.8698C1.58188 29.4893 1.90864 29.1809 2.31171 29.1809H62.9719C63.375 29.1809 63.7017 29.4893 63.7017 29.8698V39.064C63.7017 39.4446 63.375 39.7529 62.9719 39.7529H2.31171C1.90864 39.7529 1.58188 39.4446 1.58188 39.064V29.8698Z" fill="url(#paint5_linear_55_3345)"/>
<path d="M1.58188 29.8698C1.58188 29.4893 1.90864 29.1809 2.31171 29.1809H62.9719C63.375 29.1809 63.7017 29.4893 63.7017 29.8698V39.064C63.7017 39.4446 63.375 39.7529 62.9719 39.7529H2.31171C1.90864 39.7529 1.58188 39.4446 1.58188 39.064V29.8698Z" fill="url(#paint6_linear_55_3345)"/>
<path d="M8.88016 29.8698C8.88016 29.4893 9.20692 29.1809 9.60998 29.1809H70.2702C70.6733 29.1809 71 29.4893 71 29.8698V39.064C71 39.4446 70.6733 39.7529 70.2702 39.7529H9.60998C9.20692 39.7529 8.88016 39.4446 8.88016 39.064V29.8698Z" fill="url(#paint7_linear_55_3345)"/>
<path d="M0.188239 20.7637C-0.620935 17.8173 1.25347 14.8096 4.37488 14.0458L54.9327 1.67403C58.054 0.910196 61.2405 2.67954 62.0494 5.62593L63.4425 10.6985C63.5438 11.0668 63.3094 11.4427 62.9194 11.5382L2.47096 26.3302C2.0808 26.4258 1.68252 26.2045 1.58136 25.8364L0.188239 20.7637Z" fill="url(#paint8_linear_55_3345)"/>
<path d="M0.188239 20.7637C-0.620935 17.8173 1.25347 14.8096 4.37488 14.0458L54.9327 1.67403C58.054 0.910196 61.2405 2.67954 62.0494 5.62593L63.4425 10.6985C63.5438 11.0668 63.3094 11.4427 62.9194 11.5382L2.47096 26.3302C2.0808 26.4258 1.68252 26.2045 1.58136 25.8364L0.188239 20.7637Z" fill="url(#paint9_linear_55_3345)"/>
<path d="M6.30092 19.2674C5.49172 16.321 7.36615 13.3133 10.4875 12.5494L61.0452 0.177695C64.1668 -0.586142 67.3529 1.1832 68.1621 4.12959L69.5552 9.20215C69.6565 9.57044 69.4221 9.94642 69.0321 10.0419L8.58364 24.834C8.19345 24.9294 7.79517 24.7081 7.69401 24.3399L6.30092 19.2674Z" fill="url(#paint10_linear_55_3345)"/>
<path d="M35.4612 18.2569L21.7273 21.6179C21.4789 21.1998 21.1303 20.9449 20.9184 20.79L20.8819 20.7633C17.7496 18.4597 11.3119 13.7364 10.6186 13.2713C10.1787 12.9763 9.85625 12.8564 9.65024 12.8191C9.91782 12.7111 10.1974 12.6206 10.4877 12.5495L23.3685 9.39746C23.7232 9.52563 23.9968 9.70813 24.1889 9.84831C25.4337 10.7575 27.26 12.0787 29.018 13.3502C31.4363 15.0997 33.7248 16.7551 34.1898 17.1142C34.9684 17.6584 35.2997 18.0169 35.4612 18.2569Z" fill="#CACBFF"/>
<path d="M62.7765 11.5729L49.0018 14.9437C48.7288 14.4749 48.3365 14.1171 48.1134 13.9604C45.103 11.7717 38.8902 7.25212 38.1241 6.68379C37.6822 6.35606 37.2545 6.17485 36.9202 6.08149L50.7052 2.70825C51.2245 2.94852 51.6697 3.27575 52.0434 3.55057L52.0592 3.56217C55.085 5.78675 61.3189 10.3565 62.0488 10.8388C62.4627 11.1124 62.6764 11.3714 62.7765 11.5729Z" fill="#CACBFF"/>
<path d="M10.4399 40.7847H69.9207" stroke="url(#paint11_linear_55_3345)" stroke-width="0.906921" stroke-linecap="round"/>
<path d="M10.0978 30.1064H70.377" stroke="url(#paint12_linear_55_3345)" stroke-width="0.544153" stroke-linecap="round"/>
<path d="M12.7809 39.7529C13.008 39.6358 13.2867 39.441 13.5862 39.1299C14.1875 38.5055 19.1484 32.9729 21.5539 30.2845C21.7232 30.0735 22.0298 29.6108 22.1395 29.1809H36.5093C36.3586 29.4992 36.1038 29.9544 35.6603 30.4736C35.1591 31.0603 30.2733 36.4889 27.8929 39.1299C27.7542 39.2839 27.4752 39.5204 27.1418 39.7529H12.7809Z" fill="#CDCDFF"/>
<path d="M41.3943 39.7529C41.6215 39.6358 41.9003 39.441 42.1998 39.1299C42.8012 38.5055 47.7622 32.9729 50.1675 30.2845C50.3368 30.0735 50.6433 29.6108 50.7534 29.1809H65.1228C64.9721 29.4992 64.7173 29.9544 64.2738 30.4736C63.7726 31.0603 58.8868 36.4889 56.5064 39.1299C56.3678 39.2839 56.0887 39.5204 55.7553 39.7529H41.3943Z" fill="#CDCDFF"/>
<path d="M22.254 30.1064H35.4365" stroke="#D3D4FF" stroke-width="0.544153" stroke-linecap="round"/>
<path d="M50.8997 30.1064H64.0821" stroke="#D3D4FF" stroke-width="0.544153" stroke-linecap="round"/>
<defs>
<linearGradient id="paint0_linear_55_3345" x1="2.64001" y1="54.9073" x2="9.48214" y2="54.9073" gradientUnits="userSpaceOnUse">
<stop stop-color="#473850"/>
<stop offset="1" stop-color="#3F314A"/>
</linearGradient>
<linearGradient id="paint1_linear_55_3345" x1="6.38037" y1="76.608" x2="6.38037" y2="71.0105" gradientUnits="userSpaceOnUse">
<stop stop-color="#5F75A6"/>
<stop offset="1" stop-color="#443C61" stop-opacity="0"/>
</linearGradient>
<linearGradient id="paint2_linear_55_3345" x1="7.1558" y1="39.7527" x2="7.1558" y2="41.4736" gradientUnits="userSpaceOnUse">
<stop stop-color="#1E0F2A"/>
<stop offset="1" stop-color="#45374F" stop-opacity="0"/>
</linearGradient>
<linearGradient id="paint3_linear_55_3345" x1="39.94" y1="42.9848" x2="39.94" y2="76.0001" gradientUnits="userSpaceOnUse">
<stop stop-color="#7B638E"/>
<stop offset="1" stop-color="#8180C8"/>
</linearGradient>
<linearGradient id="paint4_linear_55_3345" x1="8.88016" y1="67.1355" x2="11.1243" y2="67.1355" gradientUnits="userSpaceOnUse">
<stop stop-color="#5F5691"/>
<stop offset="1" stop-color="#5F5691" stop-opacity="0"/>
</linearGradient>
<linearGradient id="paint5_linear_55_3345" x1="2.54878" y1="38.9764" x2="8.39978" y2="32.8689" gradientUnits="userSpaceOnUse">
<stop stop-color="#45374F"/>
<stop offset="1" stop-color="#3F3148"/>
</linearGradient>
<linearGradient id="paint6_linear_55_3345" x1="8.11371" y1="39.7529" x2="8.11371" y2="38.5457" gradientUnits="userSpaceOnUse">
<stop stop-color="#22112E"/>
<stop offset="1" stop-color="#3D2E49" stop-opacity="0"/>
</linearGradient>
<linearGradient id="paint7_linear_55_3345" x1="39.94" y1="33.2069" x2="39.94" y2="39.7529" gradientUnits="userSpaceOnUse">
<stop stop-color="#8F6DBD"/>
<stop offset="1" stop-color="#8661B9"/>
</linearGradient>
<linearGradient id="paint8_linear_55_3345" x1="6.01556" y1="25.8871" x2="3.72866" y2="14.5521" gradientUnits="userSpaceOnUse">
<stop stop-color="#483751"/>
<stop offset="1" stop-color="#514257"/>
</linearGradient>
<linearGradient id="paint9_linear_55_3345" x1="5.74187" y1="12.8838" x2="6.80413" y2="17.9046" gradientUnits="userSpaceOnUse">
<stop stop-color="#947397"/>
<stop offset="1" stop-color="#5B4860" stop-opacity="0"/>
</linearGradient>
<linearGradient id="paint10_linear_55_3345" x1="46.977" y1="4.18619" x2="44.1122" y2="15.8919" gradientUnits="userSpaceOnUse">
<stop stop-color="#8D74BA"/>
<stop offset="1" stop-color="#8A6EB8"/>
</linearGradient>
<linearGradient id="paint11_linear_55_3345" x1="-nan" y1="-nan" x2="-nan" y2="-nan" gradientUnits="userSpaceOnUse">
<stop stop-color="#857498"/>
<stop offset="1" stop-color="#786585"/>
</linearGradient>
<linearGradient id="paint12_linear_55_3345" x1="-nan" y1="-nan" x2="-nan" y2="-nan" gradientUnits="userSpaceOnUse">
<stop stop-color="#9474BC"/>
<stop offset="1" stop-color="#9C81C5"/>
</linearGradient>
</defs>
</svg>
