<svg width="89" height="77" viewBox="0 0 89 77" fill="none" xmlns="http://www.w3.org/2000/svg">
<path d="M40.7053 75.5448C42.3753 76.4765 44.3846 76.425 46.0446 75.4761C57.2293 69.0842 76.6646 54.3698 84.2976 35.2566C95.5009 10.3708 69.1955 -9.49452 51.0147 4.79336C49.1184 6.28378 46.7339 7.98958 45.0929 9.60542C44.3509 10.336 43.0433 10.4105 42.2733 9.70974C40.1157 7.74682 36.7439 5.22884 34.5785 3.7638C19.0792 -6.72248 -9.12221 7.10024 2.90752 36.601C7.31431 49.843 28.3143 68.6297 40.7053 75.5448Z" fill="url(#paint0_radial_55_3338)"/>
<path d="M40.7053 75.5448C42.3753 76.4765 44.3846 76.425 46.0446 75.4761C57.2293 69.0842 76.6646 54.3698 84.2976 35.2566C95.5009 10.3708 69.1955 -9.49452 51.0147 4.79336C49.1184 6.28378 46.7339 7.98958 45.0929 9.60542C44.3509 10.336 43.0433 10.4105 42.2733 9.70974C40.1157 7.74682 36.7439 5.22884 34.5785 3.7638C19.0792 -6.72248 -9.12221 7.10024 2.90752 36.601C7.31431 49.843 28.3143 68.6297 40.7053 75.5448Z" fill="url(#paint1_radial_55_3338)"/>
<path d="M40.7053 75.5448C42.3753 76.4765 44.3846 76.425 46.0446 75.4761C57.2293 69.0842 76.6646 54.3698 84.2976 35.2566C95.5009 10.3708 69.1955 -9.49452 51.0147 4.79336C49.1184 6.28378 46.7339 7.98958 45.0929 9.60542C44.3509 10.336 43.0433 10.4105 42.2733 9.70974C40.1157 7.74682 36.7439 5.22884 34.5785 3.7638C19.0792 -6.72248 -9.12221 7.10024 2.90752 36.601C7.31431 49.843 28.3143 68.6297 40.7053 75.5448Z" fill="url(#paint2_radial_55_3338)"/>
<path d="M40.7053 75.5448C42.3753 76.4765 44.3846 76.425 46.0446 75.4761C57.2293 69.0842 76.6646 54.3698 84.2976 35.2566C95.5009 10.3708 69.1955 -9.49452 51.0147 4.79336C49.1184 6.28378 46.7339 7.98958 45.0929 9.60542C44.3509 10.336 43.0433 10.4105 42.2733 9.70974C40.1157 7.74682 36.7439 5.22884 34.5785 3.7638C19.0792 -6.72248 -9.12221 7.10024 2.90752 36.601C7.31431 49.843 28.3143 68.6297 40.7053 75.5448Z" fill="url(#paint3_radial_55_3338)"/>
<path d="M40.7053 75.5448C42.3753 76.4765 44.3846 76.425 46.0446 75.4761C57.2293 69.0842 76.6646 54.3698 84.2976 35.2566C95.5009 10.3708 69.1955 -9.49452 51.0147 4.79336C49.1184 6.28378 46.7339 7.98958 45.0929 9.60542C44.3509 10.336 43.0433 10.4105 42.2733 9.70974C40.1157 7.74682 36.7439 5.22884 34.5785 3.7638C19.0792 -6.72248 -9.12221 7.10024 2.90752 36.601C7.31431 49.843 28.3143 68.6297 40.7053 75.5448Z" fill="url(#paint4_linear_55_3338)"/>
<path d="M40.7053 75.5448C42.3753 76.4765 44.3846 76.425 46.0446 75.4761C57.2293 69.0842 76.6646 54.3698 84.2976 35.2566C95.5009 10.3708 69.1955 -9.49452 51.0147 4.79336C49.1184 6.28378 46.7339 7.98958 45.0929 9.60542C44.3509 10.336 43.0433 10.4105 42.2733 9.70974C40.1157 7.74682 36.7439 5.22884 34.5785 3.7638C19.0792 -6.72248 -9.12221 7.10024 2.90752 36.601C7.31431 49.843 28.3143 68.6297 40.7053 75.5448Z" fill="url(#paint5_linear_55_3338)"/>
<path d="M40.7053 75.5448C42.3753 76.4765 44.3846 76.425 46.0446 75.4761C57.2293 69.0842 76.6646 54.3698 84.2976 35.2566C95.5009 10.3708 69.1955 -9.49452 51.0147 4.79336C49.1184 6.28378 46.7339 7.98958 45.0929 9.60542C44.3509 10.336 43.0433 10.4105 42.2733 9.70974C40.1157 7.74682 36.7439 5.22884 34.5785 3.7638C19.0792 -6.72248 -9.12221 7.10024 2.90752 36.601C7.31431 49.843 28.3143 68.6297 40.7053 75.5448Z" fill="url(#paint6_radial_55_3338)" fill-opacity="0.6"/>
<path d="M42.8637 17.2953V38.5923C42.8637 41.4166 46.2836 42.7554 48.0445 40.5469C53.4918 33.714 57.8853 25.4052 52.982 18.6182C51.1023 16.0161 47.5007 14.349 44.5581 14.8794C43.4571 15.0778 42.8637 16.1765 42.8637 17.2953Z" fill="#FA1C56"/>
<path d="M78.242 28.1877C83.7573 22.8262 84.6238 14.772 80.1775 10.1982C75.7312 5.62435 67.6558 6.2629 62.1405 11.6244C56.6253 16.9859 55.7587 25.0401 60.205 29.6139C64.6513 34.1877 72.7268 33.5492 78.242 28.1877Z" fill="url(#paint7_radial_55_3338)"/>
<path d="M66.2979 4.43146C69.1929 4.7954 71.6018 4.59731 71.6783 3.989C71.7548 3.38068 69.4699 2.59251 66.5748 2.22856C63.6797 1.86462 61.2708 2.06271 61.1943 2.67103C61.1179 3.27934 63.4028 4.06751 66.2979 4.43146Z" fill="#FF7383"/>
<path d="M22.5227 4.06667C25.1405 4.03481 27.2585 3.66044 27.2533 3.2305C27.248 2.80056 25.1216 2.47784 22.5037 2.5097C19.8858 2.54156 17.7678 2.91592 17.7731 3.34587C17.7783 3.77581 19.9048 4.09852 22.5227 4.06667Z" fill="#FF93BA" fill-opacity="0.5"/>
<path d="M39.5444 15.4884L40.5202 47.4838C19.0599 26.6088 14.9332 11.9495 23.1567 8.66017C30.9606 5.53868 37.2036 10.6111 39.5444 15.4884Z" fill="url(#paint8_radial_55_3338)"/>
<path d="M37.9841 13.6156C35.3621 13.241 34.5505 11.0664 34.4724 10.0259C35.9707 11.5866 37.4378 11.7167 37.9841 11.5866V13.6156Z" fill="#FF7383"/>
<defs>
<radialGradient id="paint0_radial_55_3338" cx="0" cy="0" r="1" gradientUnits="userSpaceOnUse" gradientTransform="translate(42.7836 1.97787) rotate(90) scale(71.7459 76.1709)">
<stop stop-color="#FC0000"/>
<stop offset="0.527969" stop-color="#FF3B79"/>
<stop offset="1" stop-color="#F724B3"/>
</radialGradient>
<radialGradient id="paint1_radial_55_3338" cx="0" cy="0" r="1" gradientUnits="userSpaceOnUse" gradientTransform="translate(65.0776 19.8624) rotate(134.402) scale(66.3776 124.331)">
<stop offset="0.797874" stop-color="#C82092" stop-opacity="0"/>
<stop offset="0.908039" stop-color="#C82092"/>
</radialGradient>
<radialGradient id="paint2_radial_55_3338" cx="0" cy="0" r="1" gradientUnits="userSpaceOnUse" gradientTransform="translate(55.6254 39.9195) rotate(-158.663) scale(71.0108 100.384)">
<stop offset="0.40984" stop-color="#B91D43" stop-opacity="0"/>
<stop offset="0.833898" stop-color="#B91D43"/>
</radialGradient>
<radialGradient id="paint3_radial_55_3338" cx="0" cy="0" r="1" gradientUnits="userSpaceOnUse" gradientTransform="translate(41.7766 27.5175) rotate(90) scale(61.803 61.803)">
<stop offset="0.671096" stop-color="#FF7AF2" stop-opacity="0"/>
<stop offset="0.933555" stop-color="#FFBCE6"/>
</radialGradient>
<linearGradient id="paint4_linear_55_3338" x1="48.5977" y1="34.7519" x2="73.608" y2="64.5165" gradientUnits="userSpaceOnUse">
<stop offset="0.694491" stop-color="#FF7AF2" stop-opacity="0"/>
<stop offset="0.933555" stop-color="#FFBCE6"/>
</linearGradient>
<linearGradient id="paint5_linear_55_3338" x1="45.4971" y1="35.992" x2="16.1459" y2="69.0639" gradientUnits="userSpaceOnUse">
<stop offset="0.694491" stop-color="#FF7AF2" stop-opacity="0"/>
<stop offset="0.933555" stop-color="#FFBCE6"/>
</linearGradient>
<radialGradient id="paint6_radial_55_3338" cx="0" cy="0" r="1" gradientUnits="userSpaceOnUse" gradientTransform="translate(50.4759 24.6464) rotate(164.618) scale(53.7352 56.7493)">
<stop offset="0.802083" stop-color="#FF73A6" stop-opacity="0"/>
<stop offset="1" stop-color="#FF93BA"/>
</radialGradient>
<radialGradient id="paint7_radial_55_3338" cx="0" cy="0" r="1" gradientUnits="userSpaceOnUse" gradientTransform="translate(79.8934 9.92845) rotate(128.737) scale(22.7599 30.2648)">
<stop stop-color="#FF7383"/>
<stop offset="1" stop-color="#FF7383" stop-opacity="0"/>
</radialGradient>
<radialGradient id="paint8_radial_55_3338" cx="0" cy="0" r="1" gradientUnits="userSpaceOnUse" gradientTransform="translate(44.2269 27.5918) rotate(-135.591) scale(39.5995 70.296)">
<stop stop-color="#FF6274"/>
<stop offset="1" stop-color="#FF6274" stop-opacity="0"/>
</radialGradient>
</defs>
</svg>
