<svg width="76" height="70" viewBox="0 0 76 70" fill="none" xmlns="http://www.w3.org/2000/svg">
<path d="M75.3721 29.2339C75.3721 24.0472 72.1664 19.6434 67.6258 17.7659C67.142 17.5659 66.8413 17.0715 66.9075 16.5519C66.9569 16.1637 66.9912 15.773 66.9912 15.3652C66.9912 8.47086 61.3593 2.88597 54.4069 2.88597C51.9235 2.88597 49.6486 3.61733 47.708 4.86015C47.1298 5.23061 46.3359 5.04838 45.958 4.47486C44.1792 1.77605 41.1548 0 37.6726 0C34.2204 0 31.1835 1.76916 29.435 4.4411C29.0581 5.01674 28.2645 5.20652 27.6835 4.83792C25.7446 3.60749 23.4721 2.85926 20.9921 2.85926C14.0396 2.85926 8.40759 8.44415 8.40759 15.3384C8.40759 15.7416 8.44125 16.1364 8.48974 16.5228C8.55511 17.0436 8.256 17.5409 7.77139 17.7426C3.20694 19.6418 0 24.0461 0 29.2339C0 34.4206 3.20563 38.8241 7.74607 40.7016C8.23006 40.902 8.53065 41.3963 8.46451 41.9158C8.4151 42.3039 8.38066 42.6947 8.38066 43.1026C8.38066 49.9968 14.0127 55.5818 20.9651 55.5818C23.4466 55.5818 25.7205 54.8514 27.6599 53.6102C28.2398 53.2392 29.0356 53.4232 29.4143 53.998C31.1757 56.671 34.1928 58.4409 37.6455 58.4409C41.0977 58.4409 44.1346 56.6718 45.8831 53.9999C46.26 53.4243 47.0536 53.2344 47.6346 53.6032C49.5735 54.8335 51.846 55.5818 54.3259 55.5818C61.2785 55.5818 66.9105 49.9968 66.9105 43.1026C66.9105 42.7014 66.8772 42.3087 66.8289 41.9241C66.7635 41.4008 67.066 40.9014 67.5542 40.7016C72.1425 38.8241 75.3721 34.4206 75.3721 29.2339Z" fill="url(#paint0_radial_55_4342)"/>
<path d="M75.3721 29.2339C75.3721 24.0472 72.1664 19.6434 67.6258 17.7659C67.142 17.5659 66.8413 17.0715 66.9075 16.5519C66.9569 16.1637 66.9912 15.773 66.9912 15.3652C66.9912 8.47086 61.3593 2.88597 54.4069 2.88597C51.9235 2.88597 49.6486 3.61733 47.708 4.86015C47.1298 5.23061 46.3359 5.04838 45.958 4.47486C44.1792 1.77605 41.1548 0 37.6726 0C34.2204 0 31.1835 1.76916 29.435 4.4411C29.0581 5.01674 28.2645 5.20652 27.6835 4.83792C25.7446 3.60749 23.4721 2.85926 20.9921 2.85926C14.0396 2.85926 8.40759 8.44415 8.40759 15.3384C8.40759 15.7416 8.44125 16.1364 8.48974 16.5228C8.55511 17.0436 8.256 17.5409 7.77139 17.7426C3.20694 19.6418 0 24.0461 0 29.2339C0 34.4206 3.20563 38.8241 7.74607 40.7016C8.23006 40.902 8.53065 41.3963 8.46451 41.9158C8.4151 42.3039 8.38066 42.6947 8.38066 43.1026C8.38066 49.9968 14.0127 55.5818 20.9651 55.5818C23.4466 55.5818 25.7205 54.8514 27.6599 53.6102C28.2398 53.2392 29.0356 53.4232 29.4143 53.998C31.1757 56.671 34.1928 58.4409 37.6455 58.4409C41.0977 58.4409 44.1346 56.6718 45.8831 53.9999C46.26 53.4243 47.0536 53.2344 47.6346 53.6032C49.5735 54.8335 51.846 55.5818 54.3259 55.5818C61.2785 55.5818 66.9105 49.9968 66.9105 43.1026C66.9105 42.7014 66.8772 42.3087 66.8289 41.9241C66.7635 41.4008 67.066 40.9014 67.5542 40.7016C72.1425 38.8241 75.3721 34.4206 75.3721 29.2339Z" fill="url(#paint1_radial_55_4342)"/>
<path d="M75.3721 29.2339C75.3721 24.0472 72.1664 19.6434 67.6258 17.7659C67.142 17.5659 66.8413 17.0715 66.9075 16.5519C66.9569 16.1637 66.9912 15.773 66.9912 15.3652C66.9912 8.47086 61.3593 2.88597 54.4069 2.88597C51.9235 2.88597 49.6486 3.61733 47.708 4.86015C47.1298 5.23061 46.3359 5.04838 45.958 4.47486C44.1792 1.77605 41.1548 0 37.6726 0C34.2204 0 31.1835 1.76916 29.435 4.4411C29.0581 5.01674 28.2645 5.20652 27.6835 4.83792C25.7446 3.60749 23.4721 2.85926 20.9921 2.85926C14.0396 2.85926 8.40759 8.44415 8.40759 15.3384C8.40759 15.7416 8.44125 16.1364 8.48974 16.5228C8.55511 17.0436 8.256 17.5409 7.77139 17.7426C3.20694 19.6418 0 24.0461 0 29.2339C0 34.4206 3.20563 38.8241 7.74607 40.7016C8.23006 40.902 8.53065 41.3963 8.46451 41.9158C8.4151 42.3039 8.38066 42.6947 8.38066 43.1026C8.38066 49.9968 14.0127 55.5818 20.9651 55.5818C23.4466 55.5818 25.7205 54.8514 27.6599 53.6102C28.2398 53.2392 29.0356 53.4232 29.4143 53.998C31.1757 56.671 34.1928 58.4409 37.6455 58.4409C41.0977 58.4409 44.1346 56.6718 45.8831 53.9999C46.26 53.4243 47.0536 53.2344 47.6346 53.6032C49.5735 54.8335 51.846 55.5818 54.3259 55.5818C61.2785 55.5818 66.9105 49.9968 66.9105 43.1026C66.9105 42.7014 66.8772 42.3087 66.8289 41.9241C66.7635 41.4008 67.066 40.9014 67.5542 40.7016C72.1425 38.8241 75.3721 34.4206 75.3721 29.2339Z" fill="url(#paint2_radial_55_4342)"/>
<path d="M75.3721 29.2339C75.3721 24.0472 72.1664 19.6434 67.6258 17.7659C67.142 17.5659 66.8413 17.0715 66.9075 16.5519C66.9569 16.1637 66.9912 15.773 66.9912 15.3652C66.9912 8.47086 61.3593 2.88597 54.4069 2.88597C51.9235 2.88597 49.6486 3.61733 47.708 4.86015C47.1298 5.23061 46.3359 5.04838 45.958 4.47486C44.1792 1.77605 41.1548 0 37.6726 0C34.2204 0 31.1835 1.76916 29.435 4.4411C29.0581 5.01674 28.2645 5.20652 27.6835 4.83792C25.7446 3.60749 23.4721 2.85926 20.9921 2.85926C14.0396 2.85926 8.40759 8.44415 8.40759 15.3384C8.40759 15.7416 8.44125 16.1364 8.48974 16.5228C8.55511 17.0436 8.256 17.5409 7.77139 17.7426C3.20694 19.6418 0 24.0461 0 29.2339C0 34.4206 3.20563 38.8241 7.74607 40.7016C8.23006 40.902 8.53065 41.3963 8.46451 41.9158C8.4151 42.3039 8.38066 42.6947 8.38066 43.1026C8.38066 49.9968 14.0127 55.5818 20.9651 55.5818C23.4466 55.5818 25.7205 54.8514 27.6599 53.6102C28.2398 53.2392 29.0356 53.4232 29.4143 53.998C31.1757 56.671 34.1928 58.4409 37.6455 58.4409C41.0977 58.4409 44.1346 56.6718 45.8831 53.9999C46.26 53.4243 47.0536 53.2344 47.6346 53.6032C49.5735 54.8335 51.846 55.5818 54.3259 55.5818C61.2785 55.5818 66.9105 49.9968 66.9105 43.1026C66.9105 42.7014 66.8772 42.3087 66.8289 41.9241C66.7635 41.4008 67.066 40.9014 67.5542 40.7016C72.1425 38.8241 75.3721 34.4206 75.3721 29.2339Z" fill="url(#paint3_linear_55_4342)"/>
<path d="M75.3721 29.2339C75.3721 24.0472 72.1664 19.6434 67.6258 17.7659C67.142 17.5659 66.8413 17.0715 66.9075 16.5519C66.9569 16.1637 66.9912 15.773 66.9912 15.3652C66.9912 8.47086 61.3593 2.88597 54.4069 2.88597C51.9235 2.88597 49.6486 3.61733 47.708 4.86015C47.1298 5.23061 46.3359 5.04838 45.958 4.47486C44.1792 1.77605 41.1548 0 37.6726 0C34.2204 0 31.1835 1.76916 29.435 4.4411C29.0581 5.01674 28.2645 5.20652 27.6835 4.83792C25.7446 3.60749 23.4721 2.85926 20.9921 2.85926C14.0396 2.85926 8.40759 8.44415 8.40759 15.3384C8.40759 15.7416 8.44125 16.1364 8.48974 16.5228C8.55511 17.0436 8.256 17.5409 7.77139 17.7426C3.20694 19.6418 0 24.0461 0 29.2339C0 34.4206 3.20563 38.8241 7.74607 40.7016C8.23006 40.902 8.53065 41.3963 8.46451 41.9158C8.4151 42.3039 8.38066 42.6947 8.38066 43.1026C8.38066 49.9968 14.0127 55.5818 20.9651 55.5818C23.4466 55.5818 25.7205 54.8514 27.6599 53.6102C28.2398 53.2392 29.0356 53.4232 29.4143 53.998C31.1757 56.671 34.1928 58.4409 37.6455 58.4409C41.0977 58.4409 44.1346 56.6718 45.8831 53.9999C46.26 53.4243 47.0536 53.2344 47.6346 53.6032C49.5735 54.8335 51.846 55.5818 54.3259 55.5818C61.2785 55.5818 66.9105 49.9968 66.9105 43.1026C66.9105 42.7014 66.8772 42.3087 66.8289 41.9241C66.7635 41.4008 67.066 40.9014 67.5542 40.7016C72.1425 38.8241 75.3721 34.4206 75.3721 29.2339Z" fill="url(#paint4_radial_55_4342)"/>
<path d="M7.37538 69.5047C11.3679 69.5047 14.6046 66.2681 14.6046 62.2755C14.6046 58.2832 11.3679 55.0464 7.37538 55.0464C3.38282 55.0464 0.146187 58.2832 0.146187 62.2755C0.146187 66.2681 3.38282 69.5047 7.37538 69.5047Z" fill="url(#paint5_radial_55_4342)"/>
<path d="M7.37538 69.5047C11.3679 69.5047 14.6046 66.2681 14.6046 62.2755C14.6046 58.2832 11.3679 55.0464 7.37538 55.0464C3.38282 55.0464 0.146187 58.2832 0.146187 62.2755C0.146187 66.2681 3.38282 69.5047 7.37538 69.5047Z" fill="url(#paint6_radial_55_4342)"/>
<path d="M7.37538 69.5047C11.3679 69.5047 14.6046 66.2681 14.6046 62.2755C14.6046 58.2832 11.3679 55.0464 7.37538 55.0464C3.38282 55.0464 0.146187 58.2832 0.146187 62.2755C0.146187 66.2681 3.38282 69.5047 7.37538 69.5047Z" fill="url(#paint7_radial_55_4342)"/>
<path d="M7.37538 69.5047C11.3679 69.5047 14.6046 66.2681 14.6046 62.2755C14.6046 58.2832 11.3679 55.0464 7.37538 55.0464C3.38282 55.0464 0.146187 58.2832 0.146187 62.2755C0.146187 66.2681 3.38282 69.5047 7.37538 69.5047Z" fill="url(#paint8_linear_55_4342)"/>
<path d="M7.37538 69.5047C11.3679 69.5047 14.6046 66.2681 14.6046 62.2755C14.6046 58.2832 11.3679 55.0464 7.37538 55.0464C3.38282 55.0464 0.146187 58.2832 0.146187 62.2755C0.146187 66.2681 3.38282 69.5047 7.37538 69.5047Z" fill="url(#paint9_radial_55_4342)"/>
<path d="M17.7413 24.2003L10.1872 14.0183L9.52372 17.8737L6.35057 19.2349L17.7413 24.2003Z" fill="url(#paint10_linear_55_4342)" fill-opacity="0.6"/>
<path d="M59.7232 7.91675C65.0754 9.97957 65.2055 15.6059 64.6015 18.1613L56.3781 21.7851L59.7232 7.91675Z" fill="url(#paint11_linear_55_4342)"/>
<path d="M63.281 38.7907C66.9011 43.4586 63.637 49.4194 61.4652 50.7066L50.6635 34.0505L63.281 38.7907Z" fill="url(#paint12_linear_55_4342)"/>
<path d="M28.0838 7.49863C30.9829 10.5093 30.7404 15.5362 30.2756 17.3946L18.289 5.82608C20.3483 4.98979 25.1847 4.48802 28.0838 7.49863Z" fill="#FAFAFC" fill-opacity="0.25"/>
<path d="M44.2519 16.767L46.482 6.69677C51.4649 4.08338 54.1478 4.397 55.2282 4.397L44.2519 16.767Z" fill="#E6E4EC" fill-opacity="0.5"/>
<defs>
<radialGradient id="paint0_radial_55_4342" cx="0" cy="0" r="1" gradientUnits="userSpaceOnUse" gradientTransform="translate(49.9889 10.2217) rotate(102.766) scale(42.2076 79.3682)">
<stop stop-color="white"/>
<stop offset="1" stop-color="#E4DBF7"/>
</radialGradient>
<radialGradient id="paint1_radial_55_4342" cx="0" cy="0" r="1" gradientUnits="userSpaceOnUse" gradientTransform="translate(50.807 54.8689) rotate(-165.279) scale(64.7973 119.617)">
<stop offset="0.523478" stop-color="#CECECE" stop-opacity="0"/>
<stop offset="1" stop-color="#CECECE"/>
</radialGradient>
<radialGradient id="paint2_radial_55_4342" cx="0" cy="0" r="1" gradientUnits="userSpaceOnUse" gradientTransform="translate(51.7672 55.0046) rotate(-131.228) scale(64.8603 53.1035)">
<stop offset="0.753049" stop-color="#CECECE" stop-opacity="0"/>
<stop offset="1" stop-color="#CECECE"/>
</radialGradient>
<linearGradient id="paint3_linear_55_4342" x1="18.0811" y1="27.6372" x2="-1.33723" y2="56.528" gradientUnits="userSpaceOnUse">
<stop offset="0.439002" stop-color="#B6A8F2" stop-opacity="0"/>
<stop offset="0.96612" stop-color="#B6A8F2"/>
</linearGradient>
<radialGradient id="paint4_radial_55_4342" cx="0" cy="0" r="1" gradientUnits="userSpaceOnUse" gradientTransform="translate(45.0801 19.5627) rotate(117.537) scale(79.6338 183.966)">
<stop offset="0.278342" stop-color="#B6A8F2" stop-opacity="0"/>
<stop offset="1" stop-color="#B6A8F2"/>
</radialGradient>
<radialGradient id="paint5_radial_55_4342" cx="0" cy="0" r="1" gradientUnits="userSpaceOnUse" gradientTransform="translate(14.6046 58.1896) rotate(124.829) scale(11.6582 17.3355)">
<stop stop-color="white"/>
<stop offset="1" stop-color="#E0D8F0"/>
</radialGradient>
<radialGradient id="paint6_radial_55_4342" cx="0" cy="0" r="1" gradientUnits="userSpaceOnUse" gradientTransform="translate(9.89235 68.6212) rotate(-161.281) scale(12.6932 28.9791)">
<stop offset="0.523478" stop-color="#CECECE" stop-opacity="0"/>
<stop offset="1" stop-color="#CECECE"/>
</radialGradient>
<radialGradient id="paint7_radial_55_4342" cx="0" cy="0" r="1" gradientUnits="userSpaceOnUse" gradientTransform="translate(9.32736 69.2869) rotate(-128.192) scale(18.1189 19.9264)">
<stop offset="0.618588" stop-color="#CECECE" stop-opacity="0"/>
<stop offset="1" stop-color="#CECECE"/>
</radialGradient>
<linearGradient id="paint8_linear_55_4342" x1="3.61464" y1="61.8839" x2="-1.52113" y2="67.8085" gradientUnits="userSpaceOnUse">
<stop offset="0.439002" stop-color="#B6A8F2" stop-opacity="0"/>
<stop offset="0.96612" stop-color="#B6A8F2"/>
</linearGradient>
<radialGradient id="paint9_radial_55_4342" cx="0" cy="0" r="1" gradientUnits="userSpaceOnUse" gradientTransform="translate(8.79375 59.8863) rotate(112.012) scale(18.8431 36.8972)">
<stop offset="0.278342" stop-color="#B6A8F2" stop-opacity="0"/>
<stop offset="1" stop-color="#B6A8F2"/>
</radialGradient>
<linearGradient id="paint10_linear_55_4342" x1="18.289" y1="24.5791" x2="17.2914" y2="16.5169" gradientUnits="userSpaceOnUse">
<stop offset="0.515508" stop-color="#CEC7D4" stop-opacity="0"/>
<stop offset="1" stop-color="#CEC7D5"/>
</linearGradient>
<linearGradient id="paint11_linear_55_4342" x1="64.2531" y1="19.8339" x2="53.0329" y2="14.4676" gradientUnits="userSpaceOnUse">
<stop stop-color="white"/>
<stop offset="1" stop-color="white" stop-opacity="0"/>
</linearGradient>
<linearGradient id="paint12_linear_55_4342" x1="64.1136" y1="50.8195" x2="56.0283" y2="36.2182" gradientUnits="userSpaceOnUse">
<stop stop-color="white" stop-opacity="0.6"/>
<stop offset="1" stop-color="white" stop-opacity="0"/>
</linearGradient>
</defs>
</svg>
