<svg width="16" height="14" viewBox="0 0 16 14" fill="none" xmlns="http://www.w3.org/2000/svg">
<path d="M7.30454 0.379762L0.101832 12.8564C-0.188323 13.3628 0.175794 14 0.761794 14H15.1672C15.7532 14 16.1173 13.3685 15.8271 12.8564L8.62446 0.379762C8.32862 -0.126587 7.60038 -0.126587 7.30454 0.379762Z" fill="url(#paint0_linear_126_1120)"/>
<path d="M7.16797 9.2768C7.16797 9.71487 7.52071 10.0733 7.96447 10.0733C8.40824 10.0733 8.76098 9.71487 8.76098 9.27111V4.05969C8.76098 3.62161 8.40824 3.26318 7.96447 3.26318C7.5264 3.26318 7.16797 3.61592 7.16797 4.05969V9.2768Z" fill="#4A4351"/>
<path d="M8.76098 11.5411C8.76098 11.981 8.40437 12.3376 7.96447 12.3376C7.52458 12.3376 7.16797 11.981 7.16797 11.5411C7.16797 11.1012 7.52458 10.7446 7.96447 10.7446C8.40437 10.7446 8.76098 11.1012 8.76098 11.5411Z" fill="#4A4351"/>
<defs>
<linearGradient id="paint0_linear_126_1120" x1="7.9645" y1="0" x2="7.9645" y2="14" gradientUnits="userSpaceOnUse">
<stop stop-color="#FFD758"/>
<stop offset="1" stop-color="#FFA956"/>
</linearGradient>
</defs>
</svg>
