<svg width="128" height="132" viewBox="0 0 128 132" fill="none" xmlns="http://www.w3.org/2000/svg">
<path d="M50.56 19.0781C41.5275 14.6308 28.9025 12.4523 12 12.375C10.4059 12.3526 8.84313 12.832 7.52001 13.7491C6.43398 14.5061 5.54498 15.5267 4.93119 16.7212C4.3174 17.9157 3.99763 19.2474 4.00001 20.5992V94.3593C4.00001 99.3454 7.44001 103.107 12 103.107C29.7675 103.107 47.59 104.819 58.265 115.224C58.411 115.367 58.5946 115.463 58.7929 115.499C58.9911 115.535 59.1954 115.511 59.3802 115.428C59.5651 115.346 59.7224 115.209 59.8325 115.036C59.9427 114.862 60.001 114.658 60 114.451V27.5395C60.0004 26.9531 59.8788 26.3735 59.6433 25.8397C59.4078 25.306 59.064 24.8306 58.635 24.4457C56.1898 22.29 53.4736 20.4845 50.56 19.0781ZM120.48 13.7414C119.156 12.8265 117.593 12.3499 116 12.375C99.0975 12.4523 86.4725 14.6205 77.44 19.0781C74.5266 20.4819 71.8097 22.2839 69.3625 24.4354C68.9345 24.821 68.5915 25.2966 68.3565 25.8302C68.1215 26.3638 67.9999 26.9431 68 27.5292V114.446C67.9999 114.645 68.0569 114.84 68.1639 115.006C68.271 115.173 68.4232 115.303 68.6016 115.38C68.7799 115.457 68.9765 115.479 69.1665 115.441C69.3566 115.404 69.5318 115.31 69.67 115.17C76.0875 108.596 87.35 103.099 116.01 103.102C118.132 103.102 120.167 102.233 121.667 100.685C123.167 99.1382 124.01 97.0398 124.01 94.8518V20.6018C124.013 19.2473 123.692 17.9129 123.077 16.7164C122.461 15.5199 121.569 14.4982 120.48 13.7414Z" fill="#008D0E"/>
</svg>
