<svg width="106" height="24" viewBox="0 0 106 24" fill="none" xmlns="http://www.w3.org/2000/svg">
<g clip-path="url(#clip0_5_38)">
<path d="M1.3418 19V4.85938H7.35742C10.5215 4.85938 12.5918 6.85156 12.5918 9.82031C12.5918 12.8477 10.4629 14.7422 7.24023 14.7422H5.05273V19H1.3418ZM5.05273 11.8516H6.49805C7.9043 11.8516 8.70508 11.0703 8.70508 9.82031C8.70508 8.58984 7.9043 7.82812 6.49805 7.82812H5.05273V11.8516ZM18.373 4.85938L18.041 14.6055H14.9746L14.623 4.85938H18.373ZM16.498 19.2148C15.4434 19.2148 14.584 18.375 14.6035 17.3203C14.584 16.2852 15.4434 15.4453 16.498 15.4453C17.4941 15.4453 18.3926 16.2852 18.3926 17.3203C18.3926 18.375 17.4941 19.2148 16.498 19.2148ZM20.8535 19V4.85938H24.5645V10.6406H24.7598L29.1348 4.85938H33.4902L28.6465 11.168L33.5879 19H29.1348L25.873 13.6289L24.5645 15.3086V19H20.8535ZM38.1582 19H34.1348L38.8418 4.85938H43.9004L48.5879 19H44.584L43.7441 16.2266H38.998L38.1582 19ZM39.8574 13.4141H42.8848L41.4199 8.66797H41.3027L39.8574 13.4141ZM49.9941 19V4.85938H56.0488C59.2715 4.85938 60.9707 6.24609 60.9707 8.41406C60.9707 9.97656 59.8574 11.168 58.2559 11.5V11.6367C60.0332 11.6953 61.5176 13.0039 61.5176 15.0156C61.5176 17.3203 59.6426 19 56.5566 19H49.9941ZM55.5996 16.0117C56.9277 16.0117 57.5918 15.5039 57.5918 14.5469C57.5918 13.5117 56.8496 12.9258 55.6582 12.9258H53.7051V16.0117H55.5996ZM55.3652 10.6016C56.4004 10.6016 57.1426 10.0938 57.1426 9.19531C57.1426 8.29688 56.4395 7.78906 55.4238 7.78906H53.7051V10.6016H55.3652ZM76.5371 11.9297C76.5371 16.6367 73.5293 19.1953 69.7012 19.1953C65.834 19.1953 62.8457 16.6172 62.8457 11.9297C62.8457 7.22266 65.834 4.66406 69.7012 4.66406C73.5293 4.66406 76.5371 7.22266 76.5371 11.9297ZM72.709 11.9297C72.709 9.33203 71.6348 7.90625 69.7012 7.90625C67.748 7.90625 66.6738 9.33203 66.6738 11.9297C66.6738 14.5273 67.748 15.9531 69.7012 15.9531C71.6348 15.9531 72.709 14.5273 72.709 11.9297ZM91.9473 11.9297C91.9473 16.6367 88.9395 19.1953 85.1113 19.1953C81.2441 19.1953 78.2559 16.6172 78.2559 11.9297C78.2559 7.22266 81.2441 4.66406 85.1113 4.66406C88.9395 4.66406 91.9473 7.22266 91.9473 11.9297ZM88.1191 11.9297C88.1191 9.33203 87.0449 7.90625 85.1113 7.90625C83.1582 7.90625 82.084 9.33203 82.084 11.9297C82.084 14.5273 83.1582 15.9531 85.1113 15.9531C87.0449 15.9531 88.1191 14.5273 88.1191 11.9297ZM93.7637 19V4.85938H97.4746V10.6406H97.6699L102.045 4.85938H106.4L101.557 11.168L106.498 19H102.045L98.7832 13.6289L97.4746 15.3086V19H93.7637Z" fill="black"/>
</g>
<defs>
<clipPath id="clip0_5_38">
<rect width="106" height="24" fill="white"/>
</clipPath>
</defs>
</svg>
